<svg xmlns="http://www.w3.org/2000/svg" width="33" height="33" viewBox="0 0 33 33">
    <g transform="translate(-32 -1370)">
        <rect data-name="Прямоугольник 14250" width="33" height="33" rx="7" transform="translate(32 1370)" style="fill:red"/>
        <g data-name="Сгруппировать 18277">
            <g data-name="Сгруппировать 18275">
                <path data-name="Прямоугольник 14310" d="M2 0h13a2 2 0 0 1 2 2v1H0V2a2 2 0 0 1 2-2z" transform="translate(40 1379)" style="fill:#fff"/>
                <path data-name="Контур 71626" d="M0-1h17v7a2 2 0 0 1-2 2H2a2 2 0 0 1-2-2z" transform="translate(40 1384)" style="fill:#fff"/>
            </g>
            <path data-name="Контур 71625" d="M.678-.737a.68.68 0 0 1 .68.68.68.68 0 0 1-.68.68A.68.68 0 0 1 0-.057a.68.68 0 0 1 .678-.68z" transform="translate(43.381 1380.517)" style="fill:red"/>
            <path data-name="Контур 71627" d="M.678-.737a.68.68 0 0 1 .68.68.68.68 0 0 1-.68.68A.68.68 0 0 1 0-.057a.68.68 0 0 1 .678-.68z" transform="translate(41.381 1380.518)" style="fill:red"/>
        </g>
    </g>
</svg>
