<svg xmlns="http://www.w3.org/2000/svg" width="33" height="33" viewBox="0 0 33 33">
    <g transform="translate(-32 -760)">
        <rect data-name="Прямоугольник 14250" width="33" height="33" rx="7" transform="translate(32 760)" style="fill:red"/>
        <g data-name="Сгруппировать 17916">
            <path data-name="Контур 67887" d="M4.131 14.211H2.014a2.45 2.45 0 0 1-2.009-2.018L0 5.037a2.4 2.4 0 0 1 2.153-2.081h7.229l.1.034c.045.649.655 1.047 1 1.549.037.771-.333 1.655.411 2.2.715.528 1.5-.067 2.2-.3l1.078.455.007 5.055a2.4 2.4 0 0 1-2.116 2.254c-1.095.086-2.289-.079-3.394.014-.914.614-1.762 1.4-2.671 2.01a1.152 1.152 0 0 1-1.343.116c-.788-.449-.53-1.39-.527-2.14m6.153-7.208a1.636 1.636 0 0 0-.2-.123l-5.657-.027a.5.5 0 0 0 .035 1H9.93a.518.518 0 0 0 .35-.849M7.7 10.207a.5.5 0 0 0-.249-.846H4.357a.49.49 0 0 0 0 .959h3.1a.466.466 0 0 0 .246-.116" transform="translate(40 768.782)" style="fill:#fff"/>
            <path data-name="Контур 67888" d="m17.433.1.967 1.5c.5.2 1.186.228 1.663.433a.376.376 0 0 1 .217.55l-1.118 1.335a3.059 3.059 0 0 0-.007.418c.015.412.111.882.113 1.286a.381.381 0 0 1-.479.4l-1.634-.641-1.533.625a.394.394 0 0 1-.546-.271l.11-1.783-1.095-1.307a.38.38 0 0 1 .189-.62c.5-.178 1.137-.227 1.65-.408L16.9.1a.4.4 0 0 1 .532 0" transform="translate(36.565 768.715)" style="fill:#fff"/>
        </g>
    </g>
</svg>
