<svg xmlns="http://www.w3.org/2000/svg" width="33" height="33" viewBox="0 0 33 33">
    <g transform="translate(-32 -563)">
        <rect data-name="Прямоугольник 15220" width="33" height="33" rx="7" transform="translate(32 563)" style="fill:#6b8fb3;opacity:.16"/>
        <g data-name="Сгруппировать 17932">
            <path data-name="Контур 67878" d="m0 144.468 3.64.018a2.02 2.02 0 0 1-.413 1.166 1.815 1.815 0 0 1-3.139-.567L0 144.777z" transform="translate(40 434.157)" style="fill:rgba(10,37,64,.35)"/>
            <path data-name="Контур 67879" d="M37.974 182.258v4.442a1.667 1.667 0 0 1-1.667 1.667H24.123a1.667 1.667 0 0 1-1.667-1.667v-4.444a2.827 2.827 0 0 0 3.107-1.1 2.858 2.858 0 0 0 4.638.035c.037-.008.439.458.528.531a2.853 2.853 0 0 0 4.138-.566 2.833 2.833 0 0 0 3.107 1.1" transform="translate(18.575 399.148)" style="fill:rgba(10,37,64,.35)"/>
            <path data-name="Контур 67880" d="M107.549 0v5.6h-3.5l.961-5.6z" transform="translate(-59.275 572)" style="fill:rgba(10,37,64,.35)"/>
            <path data-name="Контур 67881" d="m205.394 0 .961 5.6h-3.5V0z" transform="translate(-153.549 572)" style="fill:rgba(10,37,64,.35)"/>
            <path data-name="Контур 67882" d="m8.954 0-.961 5.6h-3.5L6.465 0z" transform="translate(35.715 572)" style="fill:rgba(10,37,64,.35)"/>
            <path data-name="Контур 67883" d="M285.913 5.6h-3.5L281.45 0h2.489z" transform="translate(-228.54 572)" style="fill:rgba(10,37,64,.35)"/>
            <path data-name="Контур 67884" d="M206.48 144.468a2 2 0 0 1-.429 1.2 1.813 1.813 0 0 1-3.211-1.2z" transform="translate(-153.535 434.157)" style="fill:rgba(10,37,64,.35)"/>
            <path data-name="Контур 67885" d="M104.692 144.468a1.814 1.814 0 0 1-3.242 1.164 2.021 2.021 0 0 1-.4-1.164z" transform="translate(-56.418 434.157)" style="fill:rgba(10,37,64,.35)"/>
            <path data-name="Контур 67886" d="M307.545 144.468a1.814 1.814 0 0 1-3.242 1.164 2.021 2.021 0 0 1-.4-1.164z" transform="translate(-249.967 434.157)" style="fill:rgba(10,37,64,.35)"/>
        </g>
    </g>
</svg>
