<svg xmlns="http://www.w3.org/2000/svg" width="33" height="33" viewBox="0 0 33 33">
    <defs>
        <clipPath id="jawfl4bg6a">
            <path data-name="Прямоугольник 14246" style="fill:#fff" d="M0 0h16.89v16.904H0z"/>
        </clipPath>
    </defs>
    <g transform="translate(-32 -882)">
        <rect data-name="Прямоугольник 14250" width="33" height="33" rx="7" transform="translate(32 882)" style="fill:red"/>
        <g data-name="Сгруппировать 17914">
            <g data-name="Сгруппировать 17913" transform="translate(40 891)" style="clip-path:url(#jawfl4bg6a)">
                <path data-name="Контур 67889" d="M12.983 4.683h1.789a.576.576 0 0 0 .109.039 2.124 2.124 0 0 1 2.011 1.935v7.928a2.575 2.575 0 0 1-2.857 2.3c-3.564.049-7.131-.032-10.695 0A3.773 3.773 0 0 1 0 13.48V1.9A2.185 2.185 0 0 1 1.864 0h9.218a2.239 2.239 0 0 1 1.9 2.008zM3.2 3.143a.594.594 0 0 0 .068 1.168H6.95a.593.593 0 0 0 0-1.173zM12.983 5.9v8.611a1.5 1.5 0 0 0 1.2 1.2 1.412 1.412 0 0 0 1.568-1.491c.14-2.371-.108-4.88 0-7.265.043-.4-.379-1.052-.792-1.052zm-9.708.378a.593.593 0 0 0-.047 1.172h6.491a.6.6 0 0 0-.111-1.181zm-.112 3.171a.6.6 0 0 0 .177 1.171h6.268a.6.6 0 0 0 .111-1.18zm.037 3.134a.6.6 0 0 0 .1 1.172h6.382a.593.593 0 0 0 0-1.18z" transform="translate(0 .001)" style="fill:#fff"/>
            </g>
        </g>
    </g>
</svg>
