<svg xmlns="http://www.w3.org/2000/svg" width="33" height="33" viewBox="0 0 33 33">
    <g transform="translate(-32 -2285)">
        <rect data-name="Прямоугольник 14250" width="33" height="33" rx="7" transform="translate(32 2285)" style="fill:#6b8fb3;opacity:.16"/>
        <path data-name="Исключение 2" d="M17752 15981h-9a4.005 4.005 0 0 1-4-4v-9a4.005 4.005 0 0 1 4-4h9a4.006 4.006 0 0 1 4 4v9a4.006 4.006 0 0 1-4 4zm-10.377-3.239a.405.405 0 1 0 0 .811h7.32a.405.405 0 1 0 0-.811zm1.594-11.337a2 2 0 0 0-2 2v5.717a2 2 0 0 0 2 2h8.566a2 2 0 0 0 2-2v-5.717a2 2 0 0 0-2-2z" transform="translate(-17699.002 -13671)" style="fill:#9aa8b5"/>
    </g>
</svg>
