<svg xmlns="http://www.w3.org/2000/svg" width="33" height="33" viewBox="0 0 33 33">
    <g transform="translate(-32 -2468)">
        <rect data-name="Прямоугольник 14250" width="33" height="33" rx="7" transform="translate(32 2468)" style="fill:#6b8fb3;opacity:.16"/>
        <path d="M15.719 5.543 14.526 1.53A2.115 2.115 0 0 0 12.491 0H4.509a2.115 2.115 0 0 0-2.035 1.53L1.281 5.543A2.148 2.148 0 0 0 0 7.51v4.29a1.068 1.068 0 0 0 1.062 1.073v1.073a1.068 1.068 0 0 0 1.062 1.073h1.064a1.068 1.068 0 0 0 1.062-1.071v-1.073h8.5v1.073a1.068 1.068 0 0 0 1.062 1.073h1.063a1.068 1.068 0 0 0 1.062-1.073v-1.073A1.068 1.068 0 0 0 17 11.8V7.51a2.148 2.148 0 0 0-1.281-1.967zM4.509 2.146h7.981l.956 3.219H3.553l.956-3.219zm-.259 8.046A1.073 1.073 0 1 1 5.312 9.12a1.068 1.068 0 0 1-1.062 1.072zm8.5 0a1.073 1.073 0 1 1 1.062-1.072 1.068 1.068 0 0 1-1.062 1.072z" transform="translate(40 2476.99)" style="fill:#9aa8b5"/>
    </g>
</svg>
