<svg xmlns="http://www.w3.org/2000/svg" width="33" height="33" viewBox="0 0 33 33">
    <defs>
        <clipPath id="es0bdpt54a">
            <path data-name="Прямоугольник 14292" style="fill:#fff" d="M0 0h17v17.043H0z"/>
        </clipPath>
    </defs>
    <g transform="translate(-32 -1187)">
        <rect data-name="Прямоугольник 14250" width="33" height="33" rx="7" transform="translate(32 1187)" style="fill:red"/>
        <g data-name="Сгруппировать 17944">
            <g data-name="Сгруппировать 17943" style="clip-path:url(#es0bdpt54a)" transform="translate(40 1194.713)">
                <path data-name="Контур 67912" d="M13.524 17.031a4.977 4.977 0 0 1-.7 0 6.749 6.749 0 0 1-1.324-.291C7.209 15.452 1.593 9.834.3 5.546c-.309-1.021-.547-2.468.175-3.368A17.853 17.853 0 0 1 2.461.237a1.759 1.759 0 0 1 2.075.244c.887.75 1.744 1.8 2.564 2.628A1.641 1.641 0 0 1 7 4.971c-.4.495-1.026.475-1.448.982-.784.942-.041 2.257.569 3.091.9 1.225 3.615 3.788 5.1 2.212.344-.365.341-.843.752-1.212a1.616 1.616 0 0 1 2.182.05 27.324 27.324 0 0 1 2.364 2.361A1.7 1.7 0 0 1 16.7 14.6a17.135 17.135 0 0 1-1.914 1.946 2.646 2.646 0 0 1-1.262.485" style="fill:#fff"/>
            </g>
        </g>
    </g>
</svg>
