<svg xmlns="http://www.w3.org/2000/svg" width="33" height="33" viewBox="0 0 33 33">
    <path data-name="Контур 71643" d="M7 0h19a7 7 0 0 1 7 7v19a7 7 0 0 1-7 7H7a7 7 0 0 1-7-7V7a7 7 0 0 1 7-7z" style="fill:red"/>
    <g data-name="Сгруппировать 17942" transform="translate(-429.964 -928)">
        <rect data-name="Прямоугольник 14286" width="12.474" height="2.673" rx="1.336" transform="translate(442.455 939)" style="fill:#fff"/>
        <rect data-name="Прямоугольник 14289" width="2.673" height="2.673" rx="1.336" transform="translate(438 939)" style="fill:#fff"/>
        <rect data-name="Прямоугольник 14287" width="12.474" height="2.673" rx="1.336" transform="translate(442.455 943.455)" style="fill:#fff"/>
        <rect data-name="Прямоугольник 14290" width="2.673" height="2.673" rx="1.336" transform="translate(438 943.455)" style="fill:#fff"/>
        <rect data-name="Прямоугольник 14288" width="12.474" height="2.673" rx="1.336" transform="translate(442.455 947.91)" style="fill:#fff"/>
        <rect data-name="Прямоугольник 14291" width="2.673" height="2.673" rx="1.336" transform="translate(438 947.91)" style="fill:#fff"/>
    </g>
</svg>
