<svg xmlns="http://www.w3.org/2000/svg" width="33" height="33" viewBox="0 0 33 33">
    <g transform="translate(-32 -2102)">
        <rect data-name="Прямоугольник 14250" width="33" height="33" rx="7" transform="translate(32 2102)" style="fill:#6b8fb3;opacity:.16"/>
        <path data-name="Исключение 1" d="M11.522 9.218c-1.075 0-2.18-.031-3.248-.062H8.24A113.53 113.53 0 0 0 5.035 9.1c-.773 0-1.46.016-2.1.049a3.292 3.292 0 0 1-2.053-.86 3.066 3.066 0 0 1-.867-2.556A5.981 5.981 0 0 1 .9 3.193 6.228 6.228 0 0 1 2.628 1.3C4.2.225 6.617 0 8.371 0a21.723 21.723 0 0 1 2.988.208 6.18 6.18 0 0 1 4.819 2.974 4.8 4.8 0 0 1 .447 4.486 2.93 2.93 0 0 1-2.572 1.476c-.76.05-1.588.074-2.531.074zM7.813.018l-1.147 5.49 1.779 2.055 1.885-2.055L9 .018H7.813z" transform="translate(40 2119.307)" style="stroke:transparent;stroke-miterlimit:10;fill:#9aa8b5"/>
        <path data-name="Контур 71639" d="M14.521.052A4.87 4.87 0 0 1 19.1 7.147a4.94 4.94 0 0 1-8.417.447A4.861 4.861 0 0 1 14.521.052" transform="translate(33.755 2108.429)" style="fill:#9aa8b5"/>
    </g>
</svg>
