<svg xmlns="http://www.w3.org/2000/svg" width="33" height="33" viewBox="0 0 33 33">
    <g transform="translate(-32 -2102)">
        <rect data-name="Прямоугольник 14250" width="33" height="33" rx="7" transform="translate(32 2102)" style="fill:red"/>
        <path data-name="Исключение 1" d="M10.211 8.169c-.953 0-1.932-.028-2.878-.055H7.3c-.935-.026-1.9-.053-2.84-.053-.685 0-1.294.014-1.863.043a2.917 2.917 0 0 1-1.815-.759 2.717 2.717 0 0 1-.768-2.264A5.3 5.3 0 0 1 .8 2.829a5.519 5.519 0 0 1 1.53-1.68A9.609 9.609 0 0 1 7.418 0a19.252 19.252 0 0 1 2.648.184 5.477 5.477 0 0 1 4.271 2.636 4.252 4.252 0 0 1 .4 3.976A2.6 2.6 0 0 1 12.455 8.1c-.674.047-1.408.069-2.244.069zM6.924.016 5.908 4.881 7.485 6.7l1.67-1.819L7.974.016h-1.05z" transform="translate(40.967 2119.215)" style="stroke:transparent;stroke-miterlimit:10;fill:#fff"/>
        <path data-name="Контур 71639" d="M13.992.051a4.316 4.316 0 0 1 4.06 6.288 4.378 4.378 0 0 1-7.459.4 4.308 4.308 0 0 1 3.4-6.683" transform="translate(34.31 2109.569)" style="fill:#fff"/>
    </g>
</svg>
