<svg xmlns="http://www.w3.org/2000/svg" width="33" height="33" viewBox="0 0 33 33">
    <g transform="translate(-32 -2407)">
        <rect data-name="Прямоугольник 14250" width="33" height="33" rx="7" transform="translate(32 2407)" style="fill:red"/>
        <path data-name="Контур 71642" d="M4.321 14.731H2.107a2.564 2.564 0 0 1-2.1-2.111L0 5.133a2.505 2.505 0 0 1 2.252-2.177h7.562s2.642.056 2.627.041a4.258 4.258 0 0 1 1.45.3c.893.479.941 2.028.941 2.028v7.049a2.516 2.516 0 0 1-2.214 2.358c-1.145.09-2.394-.082-3.55.015-.957.643-1.843 1.465-2.794 2.1a1.2 1.2 0 0 1-1.4.121c-.824-.47-.555-1.454-.552-2.239m6.433-7.55a1.711 1.711 0 0 0-.214-.129l-5.913-.025a.524.524 0 0 0 .036 1.044h5.724a.542.542 0 0 0 .366-.888m-2.7 3.36a.522.522 0 0 0-.261-.885H4.558a.512.512 0 0 0 0 1h3.239a.487.487 0 0 0 .257-.121" transform="translate(39.422 2414.015)" style="fill:#fff"/>
        <path d="M8.021.758A2.343 2.343 0 0 0 6.279 0 2.192 2.192 0 0 0 4.91.472a2.8 2.8 0 0 0-.553.578A2.8 2.8 0 0 0 3.8.472 2.192 2.192 0 0 0 2.434 0 2.343 2.343 0 0 0 .692.758 2.723 2.723 0 0 0 0 2.618 3.242 3.242 0 0 0 .865 4.74a18.424 18.424 0 0 0 2.163 2.03c.3.255.639.545.992.853a.511.511 0 0 0 .673 0c.353-.308.693-.6.992-.854A18.414 18.414 0 0 0 7.848 4.74a3.241 3.241 0 0 0 .864-2.122 2.722 2.722 0 0 0-.691-1.86zm0 0" transform="translate(49.513 2414.751)" style="stroke:red;stroke-width:2px;fill:#fff"/>
    </g>
</svg>
