<svg xmlns="http://www.w3.org/2000/svg" width="33" height="33" viewBox="0 0 33 33">
    <g transform="translate(-32 -2041)">
        <rect data-name="Прямоугольник 14250" width="33" height="33" rx="7" transform="translate(32 2041)" style="fill:#6b8fb3;opacity:.16"/>
        <path data-name="Контур 54141" d="m.352-1.752 3.473-9.5H5.9l3.46 9.5H7.421L4.856-9.159 2.279-1.752zm1.533-2.157.488-1.425H7.2l.475 1.425zM13.3-1.589a3.1 3.1 0 0 1-1.68-.461 3.2 3.2 0 0 1-1.16-1.275 3.931 3.931 0 0 1-.421-1.832 3.9 3.9 0 0 1 .427-1.852 3.275 3.275 0 0 1 1.18-1.275 3.134 3.134 0 0 1 1.689-.468 2.906 2.906 0 0 1 1.289.271 2.251 2.251 0 0 1 .9.773v-3.812h1.832v9.768h-1.632l-.2-.936a2.99 2.99 0 0 1-.509.543 2.309 2.309 0 0 1-.726.407 2.964 2.964 0 0 1-.989.149zm.434-1.6a1.808 1.808 0 0 0 .957-.251 1.719 1.719 0 0 0 .644-.7 2.22 2.22 0 0 0 .231-1.031A2.22 2.22 0 0 0 15.33-6.2a1.719 1.719 0 0 0-.644-.7 1.808 1.808 0 0 0-.957-.251 1.792 1.792 0 0 0-.936.251 1.751 1.751 0 0 0-.658.7 2.138 2.138 0 0 0-.235 1.016 2.2 2.2 0 0 0 .237 1.045 1.766 1.766 0 0 0 .651.7 1.782 1.782 0 0 0 .941.249z" transform="translate(39.648 2064.775)" style="fill:#9aa8b5"/>
    </g>
</svg>
