<svg xmlns="http://www.w3.org/2000/svg" width="33" height="33" viewBox="0 0 33 33">
    <defs>
        <clipPath id="62lic7xraa">
            <path data-name="Прямоугольник 14278" style="fill:#9aa8b5" d="M0 0h14.719v17.36H0z"/>
        </clipPath>
    </defs>
    <g transform="translate(-32 -943)">
        <rect data-name="Прямоугольник 14250" width="33" height="33" rx="7" transform="translate(32 943)" style="fill:#6b8fb3;opacity:.16"/>
        <g data-name="Сгруппировать 18274">
            <g data-name="Сгруппировать 17938" style="clip-path:url(#62lic7xraa)" transform="translate(41.141 950.819)">
                <path data-name="Контур 67904" d="M4.682 170.288c1.72-.126 3.554.068 5.286-.012a5.015 5.015 0 0 1 4.619 3.825c.4 1.8-.084 2.568-1.8 3.089-2.738.832-8.665.86-11.341-.161a1.893 1.893 0 0 1-1.403-2.419 5.079 5.079 0 0 1 4.639-4.322" transform="translate(0 -160.446)" style="fill:#9aa8b5"/>
                <path data-name="Контур 67905" d="M53.362.022a4.506 4.506 0 0 1 4.2 7.091 4.544 4.544 0 0 1-7.708-.554 4.522 4.522 0 0 1 3.5-6.536" transform="translate(-46.526)" style="fill:#9aa8b5"/>
            </g>
        </g>
    </g>
</svg>
