<svg xmlns="http://www.w3.org/2000/svg" width="33" height="33" viewBox="0 0 33 33">
    <g transform="translate(-32 -1248)">
        <rect data-name="Прямоугольник 14250" width="33" height="33" rx="7" transform="translate(32 1248)" style="fill:#6b8fb3;opacity:.16"/>
        <path data-name="Контур 71622" d="M4.951 16.448H2.414a2.937 2.937 0 0 1-2.408-2.419L0 5.451a2.871 2.871 0 0 1 2.58-2.494h8.665s3.028.064 3.01.047a4.879 4.879 0 0 1 1.661.345c1.023.548 1.079 2.324 1.079 2.324L17 13.747a2.883 2.883 0 0 1-2.537 2.7c-1.312.1-2.743-.094-4.068.017-1.1.736-2.112 1.678-3.2 2.409a1.381 1.381 0 0 1-1.609.138c-.944-.538-.636-1.666-.632-2.566M12.323 7.8a1.961 1.961 0 0 0-.245-.147L5.3 7.618a.6.6 0 0 0 .041 1.2H11.9a.621.621 0 0 0 .42-1.018m-3.094 3.85a.6.6 0 0 0-.3-1.014H5.222a.587.587 0 0 0 0 1.15h3.712a.558.558 0 0 0 .295-.138" transform="translate(40 1254.44)" style="fill:#9aa8b5"/>
    </g>
</svg>
