<svg xmlns="http://www.w3.org/2000/svg" width="33" height="33" viewBox="0 0 33 33">
    <defs>
        <clipPath id="ynl2vxl31a">
            <path data-name="Прямоугольник 14299" style="fill:#9aa8b5" d="M0 0h17v16.941H0z"/>
        </clipPath>
    </defs>
    <g data-name="Сгруппировать 18289" transform="translate(655 -10334)">
        <rect width="33" height="33" rx="7" transform="translate(-655 10334)" style="fill:#6b8fb3;opacity:.16"/>
        <g data-name="Сгруппировать 18287">
            <g data-name="Сгруппировать 17947" style="clip-path:url(#ynl2vxl31a)" transform="translate(-647 10342.029)">
                <path data-name="Контур 67915" d="M9.914 3.14H14.3a3.03 3.03 0 0 1 2.647 2.717c-.138 2.737.178 5.647 0 8.364a2.959 2.959 0 0 1-2.719 2.719H2.648A2.991 2.991 0 0 1 0 14.33V5.753A3.041 3.041 0 0 1 2.644 3.14h4.384L4.807.867a.591.591 0 0 1 .927-.7l2.723 2.712C9.416 2 10.307 1.032 11.249.128a.588.588 0 0 1 .857.783zM7.539 7.182a1.443 1.443 0 0 0-1.326 1.3 23.544 23.544 0 0 0 0 3.11 1.42 1.42 0 0 0 2.1 1.134c.907-.461 1.822-1.319 2.73-1.82a1.432 1.432 0 0 0-.154-2.249C10 8.288 9.022 7.583 8.126 7.277a1.654 1.654 0 0 0-.587-.094" style="fill:#9aa8b5"/>
            </g>
        </g>
    </g>
</svg>
