<svg xmlns="http://www.w3.org/2000/svg" xmlns:xlink="http://www.w3.org/1999/xlink" width="33" height="33" viewBox="0 0 33 33">
  <defs>
    <style>
      .cls-1 {
        fill: #fff;
      }

      .cls-2 {
        fill: red;
      }

      .cls-3 {
        clip-path: url(#clip-path);
      }
    </style>
    <clipPath id="clip-path">
      <rect id="Прямоугольник_14299" data-name="Прямоугольник 14299" class="cls-1" width="17" height="16.941"/>
    </clipPath>
  </defs>
  <g id="icon_tv_red" transform="translate(-250 -19)">
    <path id="icon_tv" class="cls-2" d="M7,0H26a7,7,0,0,1,7,7V26a7,7,0,0,1-7,7H7a7,7,0,0,1-7-7V7A7,7,0,0,1,7,0Z" transform="translate(250 19)"/>
    <g id="Сгруппировать_18288" data-name="Сгруппировать 18288" transform="translate(258 27)">
      <g id="Сгруппировать_17947" data-name="Сгруппировать 17947" class="cls-3">
        <path id="Контур_67915" data-name="Контур 67915" class="cls-1" d="M9.914,3.14H14.3a3.03,3.03,0,0,1,2.647,2.717c-.138,2.737.178,5.647,0,8.364a2.959,2.959,0,0,1-2.719,2.719l-11.58,0A2.991,2.991,0,0,1,0,14.33L0,5.753A3.041,3.041,0,0,1,2.644,3.14H7.028L4.807.867a.591.591,0,0,1,.927-.7L8.457,2.879C9.416,2,10.307,1.032,11.249.128a.588.588,0,0,1,.857.783ZM7.539,7.182a1.443,1.443,0,0,0-1.326,1.3,23.544,23.544,0,0,0,0,3.11,1.42,1.42,0,0,0,2.1,1.134c.907-.461,1.822-1.319,2.73-1.82a1.432,1.432,0,0,0-.154-2.249C10,8.288,9.022,7.583,8.126,7.277a1.654,1.654,0,0,0-.587-.094" transform="translate(0 0)"/>
      </g>
    </g>
  </g>
</svg>
