<svg xmlns="http://www.w3.org/2000/svg" width="40" height="40" viewBox="0 0 40 40">
  <g id="AutoScout24-Listings-Scraper_icon" transform="translate(-131.5 -1715)">
    <rect id="Прямоугольник_14305" data-name="Прямоугольник 14305" width="40" height="40" rx="9" transform="translate(131.5 1715)" fill="#f5f200"/>
    <path id="car" d="M39.922,104.99c-.18-2.016-.475-2.408-.587-2.556a3.259,3.259,0,0,0-1.1-.8.18.18,0,0,1-.045-.283.8.8,0,0,0,.226-.625.812.812,0,0,0-.816-.737h-.778a.849.849,0,0,0-.1.006.424.424,0,0,0-.07-.023,5.762,5.762,0,0,0-2.4-2.959C32.309,96.05,28.735,96,28.037,96s-4.272.05-6.21,1.013a5.762,5.762,0,0,0-2.4,2.959l0,.008a.325.325,0,0,0-.067.017.849.849,0,0,0-.1-.006h-.78a.812.812,0,0,0-.816.737.8.8,0,0,0,.229.622.18.18,0,0,1-.045.283,3.28,3.28,0,0,0-1.1.8c-.112.15-.407.54-.587,2.556a17.918,17.918,0,0,0-.036,3.065,13.392,13.392,0,0,0,.485,2.561.8.8,0,0,0,.658.542v.01a.8.8,0,0,0,.8.8h2.793a.8.8,0,0,0,.8-.8,3.808,3.808,0,0,0,1.045-.159,7.923,7.923,0,0,1,1.4-.245c1.522-.145,3.035-.2,3.944-.2.89,0,2.47.05,3.995.2a7.94,7.94,0,0,1,1.4.246,3.966,3.966,0,0,0,.99.157.8.8,0,0,0,.8.8h2.793a.8.8,0,0,0,.8-.8v-.006a.8.8,0,0,0,.66-.542,13.391,13.391,0,0,0,.485-2.561,17.822,17.822,0,0,0-.036-3.065ZM20.87,100.655a4.394,4.394,0,0,1,1.668-2.212,15.045,15.045,0,0,1,5.5-.848,15,15,0,0,1,5.5.848,4.407,4.407,0,0,1,1.668,2.212l.05.108a.4.4,0,0,1-.371.57c-1.658-.045-5.149-.189-6.846-.189s-5.188.147-6.848.192a.4.4,0,0,1-.371-.57c.017-.037.036-.074.052-.112Zm.6,3.972a21.31,21.31,0,0,1-2.586.153c-.529,0-1.074-.15-1.175-.621a1.474,1.474,0,0,1-.024-.674c.031-.152.081-.263.331-.3a4.26,4.26,0,0,1,2.073.338,4.821,4.821,0,0,1,1.5.7A.236.236,0,0,1,21.465,104.627Zm11.043,4.09c-.656.075-1.969.047-4.457.047s-3.8.027-4.456-.047c-.677-.075-1.541-.716-.951-1.286a4.981,4.981,0,0,1,2.528-.816,18.4,18.4,0,0,1,2.874-.239,15.564,15.564,0,0,1,2.874.24,5.068,5.068,0,0,1,2.528.816c.538.611-.264,1.207-.941,1.289Zm5.861-4.559c-.1.473-.648.621-1.175.621a22.768,22.768,0,0,1-2.641-.153c-.147-.014-.218-.282-.064-.4a4.661,4.661,0,0,1,1.5-.7,4.839,4.839,0,0,1,2.2-.334.287.287,0,0,1,.2.249,2.027,2.027,0,0,1-.024.722Z" transform="translate(123.461 1631.019)" fill="#333"/>
  </g>
</svg>
