<svg xmlns="http://www.w3.org/2000/svg" width="39" height="39" viewBox="0 0 39 39">
  <g id="icon_facebook" transform="translate(-449 -1706)">
    <rect id="Rectangle_2556" data-name="Rectangle 2556" width="39" height="39" rx="9" transform="translate(449 1706)" fill="#1877f2"/>
    <g id="facebook-logo-2" transform="translate(-1007.055 1170.637)">
      <path id="Path_1325-2" data-name="Path 1325-2" d="M1481.281,543.389l-3.118-.005c-3.5,0-5.766,2.322-5.766,5.917v2.728h-3.135a.49.49,0,0,0-.49.49v3.953a.49.49,0,0,0,.49.49h3.135v9.974a.49.49,0,0,0,.49.49h4.09a.49.49,0,0,0,.49-.49v-9.973h3.665a.49.49,0,0,0,.49-.49V552.52a.491.491,0,0,0-.49-.49h-3.667v-2.314c0-1.112.265-1.676,1.713-1.676h2.1a.49.49,0,0,0,.49-.49v-3.666a.49.49,0,0,0-.485-.495Z" fill="#fff"/>
    </g>
  </g>
</svg>
