<svg xmlns="http://www.w3.org/2000/svg" width="40" height="40" viewBox="0 0 40 40">
    <g data-name="Facebook Page Details Export" transform="translate(-131.5 -1715)">
        <rect data-name="Прямоугольник 14305" width="40" height="40" rx="9" transform="translate(131.5 1715)" style="fill:#3b74ed"/>
        <path data-name="Прямоугольник 14310" d="M3 0h19a3 3 0 0 1 3 3v2H0V3a3 3 0 0 1 3-3z" transform="translate(139 1725)" style="fill:#fff"/>
        <path data-name="Прямоугольник 14311" d="M0 0h25v9a3 3 0 0 1-3 3H3a3 3 0 0 1-3-3V0z" transform="translate(139 1732)" style="fill:#fff"/>
        <circle data-name="Эллипс 1697" cx="1" cy="1" r="1" transform="translate(141 1727)" style="fill:#3b74ed"/>
        <circle data-name="Эллипс 1698" cx="1" cy="1" r="1" transform="translate(144 1727)" style="fill:#3b74ed"/>
    </g>
</svg>
