<svg xmlns="http://www.w3.org/2000/svg" width="40" height="40" viewBox="0 0 40 40">
  <g id="Facebook_Group_Posts_Scraper" data-name="Facebook Group Posts Scraper" transform="translate(-131.5 -1715)">
    <rect id="Прямоугольник_14305" data-name="Прямоугольник 14305" width="40" height="40" rx="9" transform="translate(131.5 1715)" fill="#3b74ed"/>
    <circle id="Эллипс_1697" data-name="Эллипс 1697" cx="1" cy="1" r="1" transform="translate(141 1727)" fill="#3b74ed"/>
    <circle id="Эллипс_1698" data-name="Эллипс 1698" cx="1" cy="1" r="1" transform="translate(144 1727)" fill="#3b74ed"/>
    <path id="Контур_71639" data-name="Контур 71639" d="M.842,47.47c-1.92-1.867-.21-5.4,1.668-6.678,2.08-1.42,5.913-1.382,8.338-1.04a5.927,5.927,0,0,1,4.6,2.84c1.329,2.263,1.156,5.487-2.029,5.695-3.451.225-7.144-.176-10.62,0A3.142,3.142,0,0,1,.842,47.47" transform="translate(143.419 1697.105)" fill="#fff"/>
    <path id="Контур_71640" data-name="Контур 71640" d="M14.724.052a5.082,5.082,0,0,1,4.781,7.4,5.156,5.156,0,0,1-8.784.466,5.074,5.074,0,0,1,4-7.87" transform="translate(136.579 1724.492)" fill="#fff"/>
    <path id="Контур_94282" data-name="Контур 94282" d="M52.763,47.792c.968.941,3.1.946,4.38.794a.882.882,0,0,0,.513-1.579c-.564-.412-2.327-.137-3.089-.21-1.091-.106-.872-1.5-.613-2.239a4.03,4.03,0,0,1,3.091-2.547c.582-.073,1.552.146,2-.223a.878.878,0,0,0-.45-1.533A5.831,5.831,0,0,0,52.753,43c-.819,1.382-1.275,3.546.01,4.8" transform="translate(84.625 1696.798)" fill="#fff"/>
    <path id="Контур_94283" data-name="Контур 94283" d="M58.544,47.792c-.968.941-3.1.946-4.38.794a.882.882,0,0,1-.513-1.579c.564-.412,2.327-.137,3.088-.21,1.091-.106.872-1.5.613-2.239a4.03,4.03,0,0,0-3.091-2.547c-.582-.073-1.552.146-2-.223a.878.878,0,0,1,.45-1.533A5.831,5.831,0,0,1,58.554,43c.819,1.382,1.275,3.546-.01,4.8" transform="translate(107.181 1696.798)" fill="#fff"/>
    <path id="Контур_94281" data-name="Контур 94281" d="M49.443,2.383a2.954,2.954,0,0,1,2.1-.818A.788.788,0,1,0,51.343,0,4.391,4.391,0,0,0,48.32,7.433c.713.716,2.393,1.539,3.406,1.249a.77.77,0,0,0-.04-1.465,11.107,11.107,0,0,1-1.134-.178,2.827,2.827,0,0,1-1.109-4.656" transform="translate(93.202 1726.804)" fill="#fff"/>
    <path id="Контур_94284" data-name="Контур 94284" d="M49.877,2.383a2.954,2.954,0,0,0-2.1-.818A.788.788,0,1,1,47.977,0,4.391,4.391,0,0,1,51,7.433c-.713.716-2.393,1.539-3.406,1.249a.77.77,0,0,1,.04-1.465,11.107,11.107,0,0,0,1.134-.178,2.827,2.827,0,0,0,1.109-4.656" transform="translate(110.592 1726.804)" fill="#fff"/>
  </g>
</svg>
