<svg xmlns="http://www.w3.org/2000/svg" width="40" height="40" viewBox="0 0 40 40">
    <defs>
        <clipPath id="14cr939pia">
            <rect data-name="Прямоугольник 14250" width="40" height="40" rx="9" transform="translate(520 775)" style="fill:#0a2540;opacity:.06"/>
        </clipPath>
        <clipPath id="mhychakvjb">
            <path data-name="Прямоугольник 14249" style="fill:none" d="M0 0h47.162v54.137H0z"/>
        </clipPath>
    </defs>
    <g data-name="Группа масок 667" transform="translate(-520 -775)" style="clip-path:url(#14cr939pia)">
        <g data-name="Сгруппировать 17931">
            <g data-name="Сгруппировать 17930" style="clip-path:url(#mhychakvjb)" transform="rotate(-154.03 370.276 351.547)">
                <path data-name="Контур 67898" d="M96.822 54.06c2.407-7.749 4.865-15.474 7.308-23.206.071-.226.071-.491.118-.638.058-.184.242-.457.33-.735 3.084-9.76 6.189-19.512 9.19-29.314 3.82.009 8.317-.378 12.046 0 3.012.3 5.644 3.616 5.856 7.481V46.7c-.318 3.8-2.7 6.876-5.669 7.354-9.725.059-19.454-.073-29.178 0" transform="translate(-84.508)" style="fill:#50b96f"/>
                <path data-name="Контур 67899" d="M29.907 1c-3 9.8-6.106 19.554-9.19 29.314-.088.278-.272.55-.33.735L.869 18.7l-.1-.36c.091-3.121-.1-6.326.005-9.435C.923 4.68 3.332 1.447 6.626.994c7.76.024 15.522-.013 23.281.006" transform="translate(-.647 -.832)" style="fill:#3b96d2"/>
                <path data-name="Контур 67900" d="M19.74 71.824c-.047.148-.046.412-.118.638-2.443 7.731-4.9 15.457-7.308 23.206C6.743 95.711.832 96.966.029 87.462c.085-12.368-.1-24.744 0-37.111 0-.206-.061-.541.1-.667C.02 52.792.214 56 .123 59.118l.1.36z" transform="translate(0 -41.608)" style="fill:#f6e142"/>
            </g>
        </g>
    </g>
    <g data-name="Сгруппировать 17916">
        <path data-name="Контур 67887" d="M6.049 19.44H2.95a3.589 3.589 0 0 1-2.942-2.955L0 6a3.507 3.507 0 0 1 3.152-3.043h10.586L13.89 3c.066.95.96 1.533 1.461 2.269.054 1.129-.488 2.424.6 3.229 1.047.773 2.2-.1 3.227-.432l1.579.667.01 7.4a3.522 3.522 0 0 1-3.1 3.3c-1.6.126-3.352-.115-4.97.02-1.339.9-2.58 2.05-3.912 2.944a1.687 1.687 0 0 1-1.966.169c-1.154-.657-.777-2.035-.772-3.134m9.008-10.561a2.4 2.4 0 0 0-.3-.18l-8.277-.038a.733.733 0 0 0 .051 1.462h8.013a.759.759 0 0 0 .513-1.243m-3.78 4.7a.73.73 0 0 0-.365-1.239H6.38a.717.717 0 0 0 0 1.405h4.535a.682.682 0 0 0 .36-.169" transform="translate(9.344 8.692)" style="fill:#fff"/>
        <path data-name="Контур 67888" d="m19.03.145 1.41 2.2c.726.3 1.737.334 2.435.634a.551.551 0 0 1 .317.806l-1.63 1.952a4.479 4.479 0 0 0-.011.613c.022.6.163 1.292.165 1.884a.558.558 0 0 1-.7.586l-2.393-.938-2.245.918a.577.577 0 0 1-.8-.4l.16-2.612-1.6-1.915a.556.556 0 0 1 .277-.908c.734-.261 1.665-.333 2.416-.6l1.42-2.214a.589.589 0 0 1 .779-.006" transform="translate(10.815 7.222)" style="fill:#fff"/>
    </g>
</svg>
