<svg xmlns="http://www.w3.org/2000/svg" xmlns:xlink="http://www.w3.org/1999/xlink" width="40" height="40" viewBox="0 0 40 40">
  <defs>
    <linearGradient id="linear-gradient" x1="0.061" y1="0.075" x2="0.91" y2="1" gradientUnits="objectBoundingBox">
      <stop offset="0" stop-color="#7a17fe"/>
      <stop offset="0.39" stop-color="#fc14bd"/>
      <stop offset="0.657" stop-color="#ff4521"/>
      <stop offset="1" stop-color="#ffc904"/>
    </linearGradient>
  </defs>
  <g id="instagram-comments-scraper" transform="translate(-1016 -3330)">
    <rect id="Прямоугольник_9302" data-name="Прямоугольник 9302" width="40" height="40" rx="9" transform="translate(1016 3330)" fill="url(#linear-gradient)"/>
    <path id="Контур_94438" data-name="Контур 94438" d="M6.049,19.44H2.95A3.589,3.589,0,0,1,.008,16.485L0,6A3.507,3.507,0,0,1,3.152,2.957l10.586,0s3.7.078,3.677.058a5.96,5.96,0,0,1,2.029.422c1.25.67,1.318,2.839,1.318,2.839l.006,9.868a3.522,3.522,0,0,1-3.1,3.3c-1.6.126-3.352-.115-4.97.02-1.339.9-2.58,2.05-3.912,2.944a1.687,1.687,0,0,1-1.966.169c-1.154-.657-.777-2.035-.772-3.134M15.055,8.871a2.4,2.4,0,0,0-.3-.18L6.478,8.653a.733.733,0,0,0,.051,1.462h8.013a.759.759,0,0,0,.513-1.243m-3.78,4.7a.73.73,0,0,0-.365-1.239H6.38a.717.717,0,0,0,0,1.405l4.535,0a.682.682,0,0,0,.36-.169" transform="translate(1025.615 3338.114)" fill="#fff"/>
  </g>
</svg>
