<svg xmlns="http://www.w3.org/2000/svg" width="40" height="40" viewBox="0 0 40 40">
  <g id="lacentrale_icon" transform="translate(-1021 -1715)">
    <rect id="Прямоугольник_14317" data-name="Прямоугольник 14317" width="40" height="40" rx="9" transform="translate(1021 1715)" fill="#ff004f"/>
    <path id="car" d="M21.225,7.412l-1.61-5.366A2.852,2.852,0,0,0,16.866,0H6.089A2.852,2.852,0,0,0,3.34,2.046L1.73,7.412A2.871,2.871,0,0,0,0,10.043v5.739a1.435,1.435,0,0,0,1.435,1.435h0v1.435a1.435,1.435,0,0,0,1.435,1.435H4.3a1.435,1.435,0,0,0,1.435-1.435V17.217H17.217v1.435a1.435,1.435,0,0,0,1.435,1.435h1.435a1.435,1.435,0,0,0,1.435-1.435V17.217h0a1.435,1.435,0,0,0,1.435-1.435V10.043a2.871,2.871,0,0,0-1.73-2.631ZM6.089,2.869H16.866l1.291,4.3H4.8l1.291-4.3Zm-.35,10.76A1.435,1.435,0,1,1,7.173,12.2,1.435,1.435,0,0,1,5.739,13.63Zm11.478,0A1.435,1.435,0,1,1,18.651,12.2,1.435,1.435,0,0,1,17.216,13.63Z" transform="translate(1029.522 1725.914)" fill="#fff"/>
  </g>
</svg>
