<svg xmlns="http://www.w3.org/2000/svg" width="40" height="40" viewBox="0 0 40 40">
  <g id="Leboncoin_listing_scraper" data-name="Leboncoin listing scraper" transform="translate(-134 -925)">
    <rect id="Прямоугольник_11746" data-name="Прямоугольник 11746" width="40" height="40" rx="9" transform="translate(134 925)" fill="#e37139"/>
    <path id="Прямоугольник_15179" data-name="Прямоугольник 15179" d="M3,0H21a3,3,0,0,1,3,3V5a0,0,0,0,1,0,0H0A0,0,0,0,1,0,5V3A3,3,0,0,1,3,0Z" transform="translate(142 936)" fill="#fff"/>
    <path id="Прямоугольник_15180" data-name="Прямоугольник 15180" d="M0,0H24a0,0,0,0,1,0,0V9a3,3,0,0,1-3,3H3A3,3,0,0,1,0,9V0A0,0,0,0,1,0,0Z" transform="translate(142 943)" fill="#fff"/>
    <path id="Контур_71625" data-name="Контур 71625" d="M1.016-.307a1,1,0,1,1-1,1A1,1,0,0,1,1.016-.307Z" transform="translate(144 938)" fill="#e37139"/>
    <path id="Контур_71624" data-name="Контур 71624" d="M1.027-.307a1,1,0,1,1-1,1A1,1,0,0,1,1.027-.307Z" transform="translate(147 938)" fill="#e37139"/>
  </g>
</svg>
