<svg xmlns="http://www.w3.org/2000/svg" width="40" height="40" viewBox="0 0 40 40">
    <g data-name="Leboncoin Auto Message Sender" transform="translate(-134 -925)">
        <rect data-name="Прямоугольник 11746" width="40" height="40" rx="9" transform="translate(134 925)" style="fill:#e37139"/>
        <path data-name="Контур 67930" d="M6.049 19.44H2.95a3.589 3.589 0 0 1-2.942-2.955L0 6a3.507 3.507 0 0 1 3.152-3.043h10.586s3.7.078 3.677.058a5.96 5.96 0 0 1 2.029.422c1.25.67 1.318 2.839 1.318 2.839l.006 9.868a3.522 3.522 0 0 1-3.1 3.3c-1.6.126-3.352-.115-4.97.02-1.339.9-2.58 2.05-3.912 2.944a1.687 1.687 0 0 1-1.966.169c-1.154-.657-.777-2.035-.772-3.134m9.007-10.572a2.4 2.4 0 0 0-.3-.18l-8.277-.038a.733.733 0 0 0 .051 1.462h8.013a.759.759 0 0 0 .513-1.243m-3.78 4.7a.73.73 0 0 0-.365-1.239H6.38a.717.717 0 0 0 0 1.405h4.535a.682.682 0 0 0 .36-.169" transform="translate(143 933.046)" style="fill:#fff"/>
    </g>
</svg>
