<svg xmlns="http://www.w3.org/2000/svg" width="40" height="40" viewBox="0 0 40 40">
    <defs>
        <clipPath id="13t5a4isoa">
            <path data-name="Прямоугольник 14292" style="fill:#fff" d="M0 0h20.461v20.513H0z"/>
        </clipPath>
    </defs>
    <g data-name="Leboncoin Listings &amp; Phone Search" transform="translate(-725.5 -925)">
        <rect data-name="Прямоугольник 14285" width="40" height="40" rx="9" transform="translate(725.5 925)" style="fill:#e37139"/>
        <g data-name="Сгруппировать 17944">
            <g data-name="Сгруппировать 17943" style="clip-path:url(#13t5a4isoa)" transform="translate(735.27 934.744)">
                <path data-name="Контур 67912" d="M16.277 20.5a5.99 5.99 0 0 1-.841 0 8.123 8.123 0 0 1-1.593-.35C8.676 18.6 1.917 11.836.36 6.675-.011 5.446-.3 3.7.572 2.622A21.488 21.488 0 0 1 2.962.286a2.117 2.117 0 0 1 2.5.293c1.067.9 2.1 2.162 3.086 3.162a1.975 1.975 0 0 1-.122 2.242c-.476.6-1.235.572-1.742 1.182-.943 1.133-.049 2.717.685 3.721 1.078 1.474 4.351 4.559 6.143 2.662.414-.439.411-1.015.9-1.458a1.945 1.945 0 0 1 2.626.061 32.886 32.886 0 0 1 2.845 2.842 2.043 2.043 0 0 1 .216 2.58 20.623 20.623 0 0 1-2.3 2.342 3.184 3.184 0 0 1-1.519.584" style="fill:#fff"/>
            </g>
        </g>
    </g>
</svg>
