<svg xmlns="http://www.w3.org/2000/svg" width="40" height="40" viewBox="0 0 40 40">
  <g id="_leboncoin_listing_status_checker_icon" data-name=" leboncoin_listing_status_checker_icon" transform="translate(-418 -4529)">
    <rect id="Прямоугольник_11746" data-name="Прямоугольник 11746" width="40" height="40" rx="9" transform="translate(418 4529)" fill="#e37139"/>
    <path id="path1467" d="M-607.8-430.522h-3.544a2.737,2.737,0,0,0-2.737,2.738v3.544m-10.685,0h10.685a4.332,4.332,0,0,0,3.064-1.269l1.949-1.949a4.332,4.332,0,0,0,1.269-3.064v-10.685a4.569,4.569,0,0,0-1.338-3.231,4.569,4.569,0,0,0-3.231-1.338h-12.4a4.57,4.57,0,0,0-3.231,1.338,4.57,4.57,0,0,0-1.338,3.231v12.4a4.57,4.57,0,0,0,1.338,3.231A4.57,4.57,0,0,0-624.762-424.241Z" transform="translate(1057.072 4984.509)" fill="none" stroke="#fff" stroke-linecap="round" stroke-linejoin="round" stroke-miterlimit="10" stroke-width="1"/>
    <path id="Контур_95385" data-name="Контур 95385" d="M3.738,0H17.754a3.738,3.738,0,0,1,3.738,3.738v11.4c.083,0-3.981-.116-5.219,1.17-1.125,1.178-.876,5.131-.793,5.18H3.738A3.738,3.738,0,0,1,0,17.754V3.738A3.738,3.738,0,0,1,3.738,0Z" transform="translate(427.762 4538.754)" fill="#fff"/>
    <g id="Layer_16" data-name="Layer 16" transform="translate(430.427 4540.926)">
      <path id="Контур_95378" data-name="Контур 95378" d="M5.6,28.188A.888.888,0,0,0,4.71,27.3H3.388a.888.888,0,0,0,0,1.776H4.71A.888.888,0,0,0,5.6,28.188Z" transform="translate(0 -20.115)" fill="#e37139"/>
      <path id="Контур_95379" data-name="Контур 95379" d="M11.4,10.143A.888.888,0,0,0,10.143,11.4l.935.935a.888.888,0,0,0,1.254-1.254Z" transform="translate(-6.01 -6.01)" fill="#e37139"/>
      <path id="Контур_95380" data-name="Контур 95380" d="M28.188,2.5a.89.89,0,0,0-.888.888V4.71a.888.888,0,0,0,1.776,0V3.388a.89.89,0,0,0-.888-.888Z" transform="translate(-20.115)" fill="#e37139"/>
      <path id="Контур_95381" data-name="Контур 95381" d="M47.31,27.3H45.988a.888.888,0,1,0,0,1.776H47.31a.888.888,0,1,0,0-1.776Z" transform="translate(-34.552 -20.115)" fill="#e37139"/>
      <path id="Контур_95382" data-name="Контур 95382" d="M41.527,40.273a.888.888,0,0,0-1.254,1.254l.935.945a.887.887,0,0,0,1.254-1.254Z" transform="translate(-30.448 -30.448)" fill="#e37139"/>
      <path id="Контур_95383" data-name="Контур 95383" d="M28.188,45.11A.888.888,0,0,0,27.3,46v1.322a.888.888,0,1,0,1.776,0V46A.888.888,0,0,0,28.188,45.11Z" transform="translate(-20.115 -34.56)" fill="#e37139"/>
      <path id="Контур_95384" data-name="Контур 95384" d="M11.592,39.89a.882.882,0,0,0-.627.261l-.935.935a.887.887,0,0,0,1.254,1.254l.935-.945a.888.888,0,0,0,0-1.254A.879.879,0,0,0,11.592,39.89Z" transform="translate(-5.897 -30.326)" fill="#e37139"/>
    </g>
  </g>
</svg>
