<svg xmlns="http://www.w3.org/2000/svg" width="40" height="40" viewBox="0 0 40 40">
  <g id="icon" transform="translate(13781 3882)">
    <rect id="Прямоугольник_11746" data-name="Прямоугольник 11746" width="40" height="40" rx="9" transform="translate(-13781 -3882)" fill="#ec5a13"/>
    <g id="Сгруппировать_18239" data-name="Сгруппировать 18239" transform="translate(-14299.389 -4656.288)">
      <path id="Контур_67878" data-name="Контур 67878" d="M0,144.468l3.888.019a2.158,2.158,0,0,1-.441,1.246,1.939,1.939,0,0,1-3.353-.606L0,144.8Z" transform="translate(529 648.61)" fill="#fff"/>
      <path id="Контур_67879" data-name="Контур 67879" d="M39.033,182.333v4.747a1.781,1.781,0,0,1-1.781,1.781H24.237a1.781,1.781,0,0,1-1.781-1.781v-4.747a3.02,3.02,0,0,0,3.319-1.173,3.053,3.053,0,0,0,4.955.037c.039-.009.469.489.565.568a3.047,3.047,0,0,0,4.42-.6,3.026,3.026,0,0,0,3.319,1.173" transform="translate(507.645 613.715)" fill="#fff"/>
      <path id="Контур_67880" data-name="Контур 67880" d="M107.788,0V5.978h-3.741L105.074,0Z" transform="translate(430.051 786)" fill="#fff"/>
      <path id="Контур_67881" data-name="Контур 67881" d="M205.568,0l1.027,5.978h-3.741V0Z" transform="translate(336.086 786)" fill="#fff"/>
      <path id="Контур_67882" data-name="Контур 67882" d="M9.259,0,8.232,5.978H4.491L6.6,0Z" transform="translate(524.729 786)" fill="#fff"/>
      <path id="Контур_67883" data-name="Контур 67883" d="M286.218,5.978h-3.741L281.45,0h2.659Z" transform="translate(261.34 786)" fill="#fff"/>
      <path id="Контур_67884" data-name="Контур 67884" d="M206.728,144.468a2.132,2.132,0,0,1-.458,1.284,1.937,1.937,0,0,1-3.43-1.284Z" transform="translate(336.1 648.61)" fill="#fff"/>
      <path id="Контур_67885" data-name="Контур 67885" d="M104.941,144.468a1.938,1.938,0,0,1-3.463,1.244,2.159,2.159,0,0,1-.425-1.244Z" transform="translate(432.898 648.61)" fill="#fff"/>
      <path id="Контур_67886" data-name="Контур 67886" d="M307.794,144.468a1.938,1.938,0,0,1-3.463,1.244,2.159,2.159,0,0,1-.425-1.244Z" transform="translate(239.984 648.61)" fill="#fff"/>
    </g>
  </g>
</svg>
