<svg xmlns="http://www.w3.org/2000/svg" width="40" height="40" viewBox="0 0 40 40">
  <g id="icon" transform="translate(13714 2934)">
    <g id="icon-2" data-name="icon" transform="translate(-14141 -5439)">
      <rect id="Прямоугольник_14317" data-name="Прямоугольник 14317" width="40" height="40" rx="9" transform="translate(427 2505)" fill="#0466c8"/>
      <path id="Контур_67906" data-name="Контур 67906" d="M.92,48.2c-2.1-2.041-.229-5.9,1.822-7.3,2.273-1.546,6.458-1.5,9.111-1.13a6.477,6.477,0,0,1,5.03,3.1c1.452,2.473,1.263,6-2.217,6.223-3.771.246-7.806-.193-11.6,0A3.433,3.433,0,0,1,.92,48.2" transform="translate(438.131 2486.289)" fill="#fff"/>
      <path id="Контур_67907" data-name="Контур 67907" d="M14.724.052a5.082,5.082,0,0,1,4.781,7.4,5.156,5.156,0,0,1-8.784.466,5.074,5.074,0,0,1,4-7.87" transform="translate(432.044 2514.492)" fill="#fff"/>
    </g>
    <rect id="Прямоугольник_14822" data-name="Прямоугольник 14822" width="15" height="10" rx="2" transform="translate(-13694 -2911)" fill="#0466c8"/>
    <g id="Сгруппировать_18243" data-name="Сгруппировать 18243" transform="translate(2 2)">
      <path id="Контур_71695" data-name="Контур 71695" d="M11.936,13.02v4.809l-.02.047a1.11,1.11,0,0,1-1.158.724q-4.8,0-9.6,0A1.069,1.069,0,0,1,0,17.6c.014-1.478.005-2.957.005-4.436,0-.027,0-.054,0-.08,0-.048.025-.06.073-.034l.078.044,4.736,2.728a2.014,2.014,0,0,0,2.161,0l3.555-2.047,1.328-.762" transform="translate(-13694 -2921.301)" fill="#fff"/>
      <path id="Контур_71696" data-name="Контур 71696" d="M11.945,1.134a1.1,1.1,0,0,1-.569.657Q9.032,3.131,6.7,4.483a1.268,1.268,0,0,1-1.424,0L.509,1.739A.844.844,0,0,1,.028.8.986.986,0,0,1,.843.033,1.222,1.222,0,0,1,1.141,0h9.684a1.1,1.1,0,0,1,1.085.685c.011.029.023.057.035.085Z" transform="translate(-13694.009 -2911.304)" fill="#fff"/>
    </g>
  </g>
</svg>
