<svg xmlns="http://www.w3.org/2000/svg" width="40" height="40" viewBox="0 0 40 40">
  <g id="linkedin-post-commenter-and-liker-scraper" transform="translate(-722 -2929)">
    <rect id="Прямоугольник_14317" data-name="Прямоугольник 14317" width="40" height="40" rx="9" transform="translate(722 2929)" fill="#0466c8"/>
    <path id="Контур_68049" data-name="Контур 68049" d="M6.049,19.44H2.95A3.589,3.589,0,0,1,.008,16.485L0,6A3.507,3.507,0,0,1,3.152,2.957l10.586,0s3.7.078,3.677.058a5.96,5.96,0,0,1,2.029.422c1.25.67,1.318,2.839,1.318,2.839l.006,9.868a3.522,3.522,0,0,1-3.1,3.3c-1.6.126-3.352-.115-4.97.02-1.339.9-2.58,2.05-3.912,2.944a1.687,1.687,0,0,1-1.966.169c-1.154-.657-.777-2.035-.772-3.134M15.055,8.871a2.4,2.4,0,0,0-.3-.18L6.478,8.653a.733.733,0,0,0,.051,1.462h8.013a.759.759,0,0,0,.513-1.243m-3.78,4.7a.73.73,0,0,0-.365-1.239H6.38a.717.717,0,0,0,0,1.405l4.535,0a.682.682,0,0,0,.36-.169" transform="translate(730.615 2938.021)" fill="#fff"/>
    <path id="heart" d="M12.7,1.2A3.709,3.709,0,0,0,9.94,0,3.47,3.47,0,0,0,7.773.748a4.434,4.434,0,0,0-.876.915A4.431,4.431,0,0,0,6.021.748,3.47,3.47,0,0,0,3.854,0,3.709,3.709,0,0,0,1.095,1.2,4.31,4.31,0,0,0,0,4.144,5.132,5.132,0,0,0,1.369,7.5a29.169,29.169,0,0,0,3.424,3.214c.474.4,1.012.863,1.571,1.351a.81.81,0,0,0,1.066,0c.558-.488,1.1-.947,1.571-1.351A29.153,29.153,0,0,0,12.426,7.5a5.132,5.132,0,0,0,1.368-3.36A4.31,4.31,0,0,0,12.7,1.2Zm0,0" transform="translate(743.943 2937.16)" fill="#0466c8"/>
    <path id="heart-2" data-name="heart" d="M8.069.763A2.357,2.357,0,0,0,6.316,0,2.2,2.2,0,0,0,4.939.475a2.817,2.817,0,0,0-.557.581A2.815,2.815,0,0,0,3.826.475,2.2,2.2,0,0,0,2.449,0,2.357,2.357,0,0,0,.7.763,2.739,2.739,0,0,0,0,2.633,3.261,3.261,0,0,0,.87,4.768,18.533,18.533,0,0,0,3.045,6.81c.3.257.643.548,1,.858a.515.515,0,0,0,.677,0c.355-.31.7-.6,1-.859A18.523,18.523,0,0,0,7.895,4.768a3.261,3.261,0,0,0,.869-2.135,2.738,2.738,0,0,0-.7-1.87Zm0,0" transform="translate(746.459 2939.397)" fill="#fff"/>
  </g>
</svg>
