<svg xmlns="http://www.w3.org/2000/svg" width="40" height="40" viewBox="0 0 40 40">
  <g id="icon_linkedin_profile_scraper" transform="translate(-427 -2505)">
    <rect id="Прямоугольник_14317" data-name="Прямоугольник 14317" width="40" height="40" rx="9" transform="translate(427 2505)" fill="#0466c8"/>
    <path id="Контур_67906" data-name="Контур 67906" d="M.92,48.2c-2.1-2.041-.229-5.9,1.822-7.3C5.015,39.354,9.2,39.4,11.853,39.77a6.477,6.477,0,0,1,5.03,3.1c1.452,2.473,1.263,6-2.217,6.223-3.771.246-7.806-.193-11.605,0A3.433,3.433,0,0,1,.92,48.2" transform="translate(438.131 2486.289)" fill="#fff"/>
    <path id="Контур_67907" data-name="Контур 67907" d="M14.724.052a5.082,5.082,0,0,1,4.781,7.4,5.156,5.156,0,0,1-8.784.466,5.074,5.074,0,0,1,4-7.87" transform="translate(432.044 2514.492)" fill="#fff"/>
    <path id="Контур_68042" data-name="Контур 68042" d="M446.291,2525.861l-1.2,5.729,1.856,2.145,1.968-2.145-1.391-5.729Z" transform="translate(-0.006)" fill="#0074cd" stroke="#0074cd" stroke-linecap="round" stroke-linejoin="round" stroke-width="1"/>
  </g>
</svg>
