<svg xmlns="http://www.w3.org/2000/svg" width="40" height="40" viewBox="0 0 40 40">
  <g id="icon" transform="translate(-722 -2929)">
    <rect id="Прямоугольник_14317" data-name="Прямоугольник 14317" width="40" height="40" rx="9" transform="translate(722 2929)" fill="#0466c8"/>
    <path id="Исключение_7" data-name="Исключение 7" d="M17759,15988h-16a4.006,4.006,0,0,1-4-4v-16a4,4,0,0,1,4-4h16a4,4,0,0,1,4,4v16A4.006,4.006,0,0,1,17759,15988Zm-16.3-4.573a.573.573,0,0,0,0,1.146h10.334a.573.573,0,0,0,0-1.146Zm1.428-16a2,2,0,0,0-2,2v9.714a2,2,0,0,0,2,2h13.738a2,2,0,0,0,2-2v-9.714a2,2,0,0,0-2-2Z" transform="translate(-17009 -13027)" fill="#fff"/>
  </g>
</svg>
