<svg xmlns="http://www.w3.org/2000/svg" width="40" height="40" viewBox="0 0 40 40">
  <g id="icon" transform="translate(-132 -4914)">
    <rect id="Прямоугольник_14317" data-name="Прямоугольник 14317" width="40" height="40" rx="9" transform="translate(132 4914)" fill="#0466c8"/>
    <path id="Контур_67906" data-name="Контур 67906" d="M.842,47.47c-1.92-1.867-.21-5.4,1.668-6.678,2.08-1.42,5.913-1.382,8.338-1.04a5.927,5.927,0,0,1,4.6,2.84c1.329,2.263,1.156,5.487-2.029,5.695-3.451.225-7.144-.176-10.62,0A3.142,3.142,0,0,1,.842,47.47" transform="translate(140.271 4896.112)" fill="#fff"/>
    <path id="Контур_67907" data-name="Контур 67907" d="M14.724.052a5.082,5.082,0,0,1,4.781,7.4,5.156,5.156,0,0,1-8.784.466,5.074,5.074,0,0,1,4-7.87" transform="translate(133.432 4923.499)" fill="#fff"/>
    <path id="Контур_67908" data-name="Контур 67908" d="M58.658,47.922c-.984.957-3.154.962-4.456.808a.9.9,0,0,1-.522-1.607c.573-.419,2.367-.139,3.142-.214,1.11-.107.887-1.522.624-2.277A4.1,4.1,0,0,0,54.3,42.042c-.592-.075-1.579.149-2.03-.227a.893.893,0,0,1,.458-1.559,5.931,5.931,0,0,1,5.938,2.789c.833,1.406,1.3,3.607-.01,4.878" transform="translate(104.254 4895.66)" fill="#fff"/>
    <path id="Контур_67909" data-name="Контур 67909" d="M50.331,2.769A3.433,3.433,0,0,0,47.9,1.818.916.916,0,1,1,48.122,0a5.1,5.1,0,0,1,3.513,8.637c-.828.832-2.78,1.789-3.957,1.451a.9.9,0,0,1,.046-1.7,12.907,12.907,0,0,0,1.318-.207,3.285,3.285,0,0,0,1.288-5.41" transform="translate(107.639 4923.53)" fill="#fff"/>
  </g>
</svg>
