<svg xmlns="http://www.w3.org/2000/svg" width="40" height="40" viewBox="0 0 40 40">
  <g id="ParuVendu-listings-scraper_logo" transform="translate(-728 -4130)">
    <rect id="Прямоугольник_9302" data-name="Прямоугольник 9302" width="40" height="40" rx="9" transform="translate(728 4130)" fill="#ee1c24"/>
    <path id="Контур_94779" data-name="Контур 94779" d="M4.518-8.136l.172.019q.1.009.274.009a1.924,1.924,0,0,0,1.447-.469,2.137,2.137,0,0,0,.445-1.508,1.5,1.5,0,0,0-.473-1.243,2.544,2.544,0,0,0-1.577-.38H4.518ZM1.16,0V-14.287H4.444a16.487,16.487,0,0,1,2.686.158,4.132,4.132,0,0,1,1.461.529,3.041,3.041,0,0,1,1.2,1.433A5.671,5.671,0,0,1,10.205-9.9,4.426,4.426,0,0,1,9.059-6.6,4.6,4.6,0,0,1,5.7-5.474H4.518V0ZM14.167,0,10.975-14.287H14.51l1.234,7.505q.083.5.19,1.322t.209,1.777l.028-.176q.25-2.236.353-2.9l1.262-7.524H21.31L18.063,0Z" transform="translate(737 4157.287)" fill="#fff"/>
  </g>
<script xmlns=""/></svg>