<svg xmlns="http://www.w3.org/2000/svg" width="40" height="40" viewBox="0 0 40 40">
  <g id="icon" transform="translate(-128 -5299)">
    <rect id="Прямоугольник_9302" data-name="Прямоугольник 9302" width="40" height="40" rx="9" transform="translate(128 5299)" fill="#d92227"/>
    <path id="Контур_96248" data-name="Контур 96248" d="M.22,12.314c.688,0,1.376,0,2.064,0,.344,0,.688,0,1.032,0,.167,0,.243.074.238.239,0,.066,0,.132,0,.2q0,5.137,0,10.274c0,.08,0,.161,0,.241,0,.149.072.213.216.209.073,0,.146,0,.22,0H19.863c.541,0,.465.033.464-.465q0-5.192.009-10.384c0-.289.028-.313.314-.314q1.493,0,2.986,0h.3a.358.358,0,0,0-.143-.208q-2.562-2.637-5.127-5.272Q15.386,3.462,12.105.085c-.12-.124-.192-.107-.3.006-.439.461-.883.917-1.327,1.373q-3.07,3.153-6.142,6.3Q2.23,9.931.121,12.089c-.049.05-.143.1-.116.172.033.093.141.054.215.054" transform="translate(136.03 5307.261)" fill="#fff"/>
  </g>
</svg>
