<svg xmlns="http://www.w3.org/2000/svg" width="40" height="40" viewBox="0 0 40 40">
    <defs>
        <clipPath id="4elo78fj0a">
            <path data-name="Прямоугольник 14279" style="fill:#fff" d="M0 0h23.456v20.94H0z"/>
        </clipPath>
    </defs>
    <g data-name="Sales Navigator Leads Scraper" transform="translate(-429 -1314)">
        <rect data-name="Прямоугольник 14295" width="40" height="40" rx="9" transform="translate(429 1314)" style="fill:#3574b0"/>
        <g data-name="Сгруппировать 17945">
            <g data-name="Сгруппировать 17940" transform="translate(436.483 1323.325)" style="clip-path:url(#4elo78fj0a)">
                <path data-name="Контур 67906" d="M.842 47.47c-1.92-1.867-.21-5.4 1.668-6.678 2.08-1.42 5.913-1.382 8.338-1.04a5.927 5.927 0 0 1 4.6 2.84c1.329 2.263 1.156 5.487-2.029 5.695-3.451.225-7.144-.176-10.62 0a3.142 3.142 0 0 1-1.957-.817" transform="translate(0 -27.417)" style="fill:#fff"/>
                <path data-name="Контур 67907" d="M14.724.052a5.082 5.082 0 0 1 4.781 7.4 5.156 5.156 0 0 1-8.784.466 5.074 5.074 0 0 1 4-7.87" transform="translate(-6.839 -.031)" style="fill:#fff"/>
                <path data-name="Контур 67908" d="M58.658 47.922c-.984.957-3.154.962-4.456.808a.9.9 0 0 1-.522-1.607c.573-.419 2.367-.139 3.142-.214 1.11-.107.887-1.522.624-2.277a4.1 4.1 0 0 0-3.146-2.59c-.592-.075-1.579.149-2.03-.227a.893.893 0 0 1 .458-1.559 5.931 5.931 0 0 1 5.938 2.789c.833 1.406 1.3 3.607-.01 4.878" transform="translate(-36.018 -27.87)" style="fill:#fff"/>
                <path data-name="Контур 67909" d="M50.331 2.769a3.433 3.433 0 0 0-2.431-.951A.916.916 0 1 1 48.122 0a5.1 5.1 0 0 1 3.513 8.637c-.828.832-2.78 1.789-3.957 1.451a.9.9 0 0 1 .046-1.7 12.907 12.907 0 0 0 1.318-.207 3.285 3.285 0 0 0 1.288-5.41" transform="translate(-32.632)" style="fill:#fff"/>
            </g>
        </g>
    </g>
</svg>
