<svg xmlns="http://www.w3.org/2000/svg" width="40" height="40" viewBox="0 0 40 40">
    <g data-name="TikTok Top Ads Scraper" transform="translate(-133.5 -1314)">
        <rect data-name="Прямоугольник 11740" width="40" height="40" rx="9" transform="translate(133.5 1314)" style="fill:#07111c"/>
        <path data-name="Контур 54139" d="M.352 1.259 4.9-11.165h2.712l4.526 12.424H9.6L6.245-8.432 2.872 1.259zm2.006-2.822L3-3.427h6.316l.621 1.864zm14.927 3.035a4.055 4.055 0 0 1-2.192-.6A4.185 4.185 0 0 1 13.575-.8a5.142 5.142 0 0 1-.55-2.4 5.1 5.1 0 0 1 .559-2.423 4.285 4.285 0 0 1 1.544-1.668 4.1 4.1 0 0 1 2.21-.612 3.8 3.8 0 0 1 1.686.355A2.945 2.945 0 0 1 20.2-6.533v-4.987h2.4V1.259h-2.13L20.2.035a3.912 3.912 0 0 1-.666.71 3.021 3.021 0 0 1-.95.532 3.877 3.877 0 0 1-1.299.195zm.568-2.094A2.365 2.365 0 0 0 19.1-.951a2.249 2.249 0 0 0 .843-.914 2.9 2.9 0 0 0 .3-1.349 2.9 2.9 0 0 0-.3-1.349 2.249 2.249 0 0 0-.843-.914 2.365 2.365 0 0 0-1.247-.323 2.344 2.344 0 0 0-1.225.328 2.29 2.29 0 0 0-.861.914 2.8 2.8 0 0 0-.311 1.331 2.875 2.875 0 0 0 .311 1.367 2.31 2.31 0 0 0 .852.914 2.331 2.331 0 0 0 1.234.324z" transform="translate(143.014 1340.542)" style="fill:#e13659"/>
        <path data-name="Контур 54140" d="M.352 1.259 4.9-11.165h2.712l4.526 12.424H9.6L6.245-8.432 2.872 1.259zm2.006-2.822L3-3.427h6.316l.621 1.864zm14.927 3.035a4.055 4.055 0 0 1-2.192-.6A4.185 4.185 0 0 1 13.575-.8a5.142 5.142 0 0 1-.55-2.4 5.1 5.1 0 0 1 .559-2.423 4.285 4.285 0 0 1 1.544-1.668 4.1 4.1 0 0 1 2.21-.612 3.8 3.8 0 0 1 1.686.355A2.945 2.945 0 0 1 20.2-6.533v-4.987h2.4V1.259h-2.13L20.2.035a3.912 3.912 0 0 1-.666.71 3.021 3.021 0 0 1-.95.532 3.877 3.877 0 0 1-1.299.195zm.568-2.094A2.365 2.365 0 0 0 19.1-.951a2.249 2.249 0 0 0 .843-.914 2.9 2.9 0 0 0 .3-1.349 2.9 2.9 0 0 0-.3-1.349 2.249 2.249 0 0 0-.843-.914 2.365 2.365 0 0 0-1.247-.323 2.344 2.344 0 0 0-1.225.328 2.29 2.29 0 0 0-.861.914 2.8 2.8 0 0 0-.311 1.331 2.875 2.875 0 0 0 .311 1.367 2.31 2.31 0 0 0 .852.914 2.331 2.331 0 0 0 1.234.324z" transform="translate(140.795 1337.842)" style="fill:#74ece5"/>
        <path data-name="Контур 54141" d="M.352 1.259 4.9-11.165h2.712l4.526 12.424H9.6L6.245-8.432 2.872 1.259zm2.006-2.822L3-3.427h6.316l.621 1.864zm14.927 3.035a4.055 4.055 0 0 1-2.192-.6A4.185 4.185 0 0 1 13.575-.8a5.142 5.142 0 0 1-.55-2.4 5.1 5.1 0 0 1 .559-2.423 4.285 4.285 0 0 1 1.544-1.668 4.1 4.1 0 0 1 2.21-.612 3.8 3.8 0 0 1 1.686.355A2.945 2.945 0 0 1 20.2-6.533v-4.987h2.4V1.259h-2.13L20.2.035a3.912 3.912 0 0 1-.666.71 3.021 3.021 0 0 1-.95.532 3.877 3.877 0 0 1-1.299.195zm.568-2.094A2.365 2.365 0 0 0 19.1-.951a2.249 2.249 0 0 0 .843-.914 2.9 2.9 0 0 0 .3-1.349 2.9 2.9 0 0 0-.3-1.349 2.249 2.249 0 0 0-.843-.914 2.365 2.365 0 0 0-1.247-.323 2.344 2.344 0 0 0-1.225.328 2.29 2.29 0 0 0-.861.914 2.8 2.8 0 0 0-.311 1.331 2.875 2.875 0 0 0 .311 1.367 2.31 2.31 0 0 0 .852.914 2.331 2.331 0 0 0 1.234.324z" transform="translate(141.904 1339.323)" style="fill:#fff"/>
    </g>
</svg>
