<svg xmlns="http://www.w3.org/2000/svg" width="40" height="40" viewBox="0 0 40 40">
  <g id="tiktok_comments_scraper" data-name="tiktok comments scraper" transform="translate(-133.5 -3330)">
    <g id="TikTok_Top_Ads_Scraper" data-name="TikTok Top Ads Scraper" transform="translate(0 2016)">
      <rect id="Прямоугольник_11740" data-name="Прямоугольник 11740" width="40" height="40" rx="9" transform="translate(133.5 1314)" fill="#07111c"/>
    </g>
    <path id="Контур_71623" data-name="Контур 71623" d="M5.8,17.864H2.7A3.589,3.589,0,0,1-.246,14.908L0,6A3.507,3.507,0,0,1,3.152,2.957l10.586,0s3.7.078,3.677.058a5.96,5.96,0,0,1,2.029.422c1.25.67,1.318,2.839,1.318,2.839l.006,9.868a3.522,3.522,0,0,1-3.1,3.3c-1.6.126-3.352-.115-4.97.02-1.339.9-2.58,2.05-3.912,2.944a1.687,1.687,0,0,1-1.966.169c-1.154-.657-1.03-3.612-1.026-4.711m9.259-8.992a2.4,2.4,0,0,0-.3-.18L6.478,8.653a.733.733,0,0,0,.051,1.462h8.013a.759.759,0,0,0,.513-1.243m-3.78,4.7a.73.73,0,0,0-.365-1.239H6.38a.717.717,0,0,0,0,1.405l4.535,0a.682.682,0,0,0,.36-.169" transform="translate(144.262 3338.697)" fill="#74ece5"/>
    <path id="Контур_71622" data-name="Контур 71622" d="M6.049,19.44H2.95A3.589,3.589,0,0,1,.008,16.485L0,6A3.507,3.507,0,0,1,3.152,2.957l10.586,0s3.7.078,3.677.058a5.96,5.96,0,0,1,2.029.422c1.25.67,1.318,2.839,1.318,2.839l.006,9.868a3.522,3.522,0,0,1-3.1,3.3c-1.6.126-3.352-.115-4.97.02-1.339.9-2.58,2.05-3.912,2.944a1.687,1.687,0,0,1-1.966.169c-1.154-.657-.777-2.035-.772-3.134M15.055,8.871a2.4,2.4,0,0,0-.3-.18L6.478,8.653a.733.733,0,0,0,.051,1.462h8.013a.759.759,0,0,0,.513-1.243m-3.78,4.7a.73.73,0,0,0-.365-1.239H6.38a.717.717,0,0,0,0,1.405l4.535,0a.682.682,0,0,0,.36-.169" transform="translate(141.969 3337.284)" fill="#e13659"/>
    <rect id="Прямоугольник_15176" data-name="Прямоугольник 15176" width="13" height="7" transform="translate(148 3346)" fill="#07111c"/>
    <path id="Контур_71621" data-name="Контур 71621" d="M5.764,18.662H2.811a3.419,3.419,0,0,1-2.8-2.816L0,5.86a3.342,3.342,0,0,1,3-2.9l10.086,0s3.524.075,3.5.055a5.679,5.679,0,0,1,1.934.4c1.191.638,1.256,2.7,1.256,2.7l.006,9.4a3.356,3.356,0,0,1-2.953,3.146c-1.527.12-3.193-.11-4.735.02-1.276.857-2.458,1.954-3.727,2.8a1.607,1.607,0,0,1-1.873.161c-1.1-.626-.74-1.939-.736-2.986m8.581-10.07a2.283,2.283,0,0,0-.285-.171L6.172,8.384a.7.7,0,0,0,.048,1.393h7.635a.723.723,0,0,0,.489-1.185m-3.6,4.482a.7.7,0,0,0-.348-1.181H6.079a.683.683,0,0,0,0,1.339l4.321,0a.65.65,0,0,0,.343-.161" transform="translate(143.674 3338.284)" fill="#fff"/>
  </g>
</svg>
