<svg xmlns="http://www.w3.org/2000/svg" width="40" height="40" viewBox="0 0 40 40">
  <g id="TikTok_Video_Scraper_icon" data-name="TikTok Video Scraper icon" transform="translate(-1019.5 -4531)">
    <rect id="Прямоугольник_14323" data-name="Прямоугольник 14323" width="40" height="40" rx="9" transform="translate(1019.5 4531)" fill="#131921"/>
    <g id="footage" transform="translate(1027.911 4538.937)">
      <path id="Контур_95247" data-name="Контур 95247" d="M8,7.3h13.14a2.977,2.977,0,0,1,.707.089A1.976,1.976,0,0,0,19.965,6H9.1A1.976,1.976,0,0,0,7.221,7.4,2.988,2.988,0,0,1,8,7.3Z" transform="translate(-2.945)" fill="#74ece5"/>
      <path id="Контур_95248" data-name="Контур 95248" d="M5.116,12.294H20.808a2.6,2.6,0,0,1,.754.112,2.079,2.079,0,0,0-2-1.43H6.425a2.114,2.114,0,0,0-1.862,1.111,2.085,2.085,0,0,0-.129.3,2.6,2.6,0,0,1,.683-.094Z" transform="translate(-1.373 -2.807)" fill="#74ece5"/>
      <path id="Контур_95249" data-name="Контур 95249" d="M19.435,16H3.744A1.744,1.744,0,0,0,2,17.744v8.282a1.744,1.744,0,0,0,1.744,1.744H19.435a1.744,1.744,0,0,0,1.744-1.744V17.744A1.744,1.744,0,0,0,19.435,16Zm-4.68,6.3L10.68,25.282a1.308,1.308,0,0,1-1.961-1.132l.152-5.242a1.308,1.308,0,0,1,1.961-1.132l3.923,2.265a1.308,1.308,0,0,1,0,2.265Z" transform="translate(0 -5.641)" fill="#74ece5"/>
    </g>
    <g id="footage-2" data-name="footage" transform="translate(1029.911 4536.937)">
      <path id="Контур_95247-2" data-name="Контур 95247" d="M8,7.3h13.14a2.977,2.977,0,0,1,.707.089A1.976,1.976,0,0,0,19.965,6H9.1A1.976,1.976,0,0,0,7.221,7.4,2.988,2.988,0,0,1,8,7.3Z" transform="translate(-2.945)" fill="#e13659"/>
      <path id="Контур_95248-2" data-name="Контур 95248" d="M5.116,12.294H20.808a2.6,2.6,0,0,1,.754.112,2.079,2.079,0,0,0-2-1.43H6.425a2.114,2.114,0,0,0-1.862,1.111,2.085,2.085,0,0,0-.129.3,2.6,2.6,0,0,1,.683-.094Z" transform="translate(-1.373 -2.807)" fill="#e13659"/>
      <path id="Контур_95249-2" data-name="Контур 95249" d="M19.435,16H3.744A1.744,1.744,0,0,0,2,17.744v8.282a1.744,1.744,0,0,0,1.744,1.744H19.435a1.744,1.744,0,0,0,1.744-1.744V17.744A1.744,1.744,0,0,0,19.435,16ZM14.6,23.017l-4.589,2.268a1.308,1.308,0,0,1-1.961-1.132v-4.53a1.308,1.308,0,0,1,1.961-1.132L14.6,20.752a1.308,1.308,0,0,1,0,2.265Z" transform="translate(0 -5.641)" fill="#e13659"/>
    </g>
    <g id="footage-3" data-name="footage" transform="translate(1027.911 4536.937)">
      <path id="Контур_95247-3" data-name="Контур 95247" d="M8,7.3h13.14a2.977,2.977,0,0,1,.707.089A1.976,1.976,0,0,0,19.965,6H9.1A1.976,1.976,0,0,0,7.221,7.4,2.988,2.988,0,0,1,8,7.3Z" transform="translate(-2.945)" fill="#fff"/>
      <path id="Контур_95248-3" data-name="Контур 95248" d="M5.116,12.294H20.808a2.6,2.6,0,0,1,.754.112,2.079,2.079,0,0,0-2-1.43H6.425a2.114,2.114,0,0,0-1.862,1.111,2.085,2.085,0,0,0-.129.3,2.6,2.6,0,0,1,.683-.094Z" transform="translate(-1.373 -2.807)" fill="#fff"/>
      <path id="Контур_95249-3" data-name="Контур 95249" d="M19.435,16H3.744A1.744,1.744,0,0,0,2,17.744v8.282a1.744,1.744,0,0,0,1.744,1.744H19.435a1.744,1.744,0,0,0,1.744-1.744V17.744A1.744,1.744,0,0,0,19.435,16ZM14.6,23.017,10.68,25.282a1.308,1.308,0,0,1-1.961-1.132V19.62a1.308,1.308,0,0,1,1.961-1.132L14.6,20.752a1.308,1.308,0,0,1,0,2.265Z" transform="translate(0 -5.641)" fill="#fff"/>
    </g>
  </g>
<script xmlns=""/></svg>