<svg xmlns="http://www.w3.org/2000/svg" width="40" height="40" viewBox="0 0 40 40">
  <g id="tripadvisor-reviews-scraper" transform="translate(-427.5 -2104)">
    <rect id="Прямоугольник_14323" data-name="Прямоугольник 14323" width="40" height="40" rx="9" transform="translate(427.5 2104)" fill="#72dba1"/>
    <g id="Контур_71635" data-name="Контур 71635" transform="translate(439 2123)" fill="#fff">
      <path d="M 11.02388000488281 1.528318285942078 L 0.8317378163337708 1.50000011920929 C 0.6740978360176086 1.50000011920929 0.4999978244304657 1.294660210609436 0.4999978244304657 1.00000011920929 C 0.4999978244304657 0.7053401470184326 0.6740978360176086 0.5000001788139343 0.8303478360176086 0.5000001788139343 L 11.02177810668945 0.5283201336860657 C 11.17941761016846 0.5283201336860657 11.35351753234863 0.7336601614952087 11.35351753234863 1.02832019329071 C 11.35351753234863 1.322530508041382 11.17994499206543 1.527692794799805 11.02388000488281 1.528318285942078 Z" stroke="none"/>
      <path d="M 0.830348014831543 2.384185791015625e-07 L 11.02316761016846 0.0283200740814209 C 11.48175811767578 0.0283200740814209 11.85351753234863 0.4760401248931885 11.85351753234863 1.02832019329071 C 11.85351753234863 1.580600142478943 11.48175811767578 2.028320074081421 11.02316761016846 2.028320074081421 L 0.830348014831543 2.000000238418579 C 0.3717575073242188 2.000000238418579 -1.9073486328125e-06 1.552280187606812 -1.9073486328125e-06 1.00000011920929 C -1.9073486328125e-06 0.4477201700210571 0.3717575073242188 2.384185791015625e-07 0.830348014831543 2.384185791015625e-07 Z" stroke="none" fill="#28cf96"/>
    </g>
    <g id="Прямоугольник_15194" data-name="Прямоугольник 15194" transform="translate(439 2127)" fill="#fff" stroke="#28cf96" stroke-width="1">
      <rect width="8" height="2" rx="1" stroke="none"/>
      <rect x="0.5" y="0.5" width="7" height="1" rx="0.5" fill="none"/>
    </g>
    <g id="Сгруппировать_18243" data-name="Сгруппировать 18243" transform="translate(-387.322 1328.84)">
      <path id="Контур_67887" data-name="Контур 67887" d="M6.049,19.44H2.95A3.589,3.589,0,0,1,.008,16.485L0,6A3.507,3.507,0,0,1,3.152,2.957l10.586,0L13.89,3c.066.95.96,1.533,1.461,2.269.054,1.129-.488,2.424.6,3.229,1.047.773,2.2-.1,3.227-.432l1.579.667.01,7.4a3.522,3.522,0,0,1-3.1,3.3c-1.6.126-3.352-.115-4.97.02-1.339.9-2.58,2.05-3.912,2.944a1.687,1.687,0,0,1-1.966.169c-1.154-.657-.777-2.035-.772-3.134M15.055,8.871a2.4,2.4,0,0,0-.3-.18L6.478,8.653a.733.733,0,0,0,.051,1.462h8.013a.759.759,0,0,0,.513-1.243m-3.78,4.7a.73.73,0,0,0-.365-1.239H6.38a.717.717,0,0,0,0,1.405l4.535,0a.682.682,0,0,0,.36-.169" transform="translate(823.166 784.499)" fill="#fff"/>
      <path id="Контур_67888" data-name="Контур 67888" d="M19.03.145l1.41,2.2c.726.3,1.737.334,2.435.634a.551.551,0,0,1,.317.806l-1.63,1.952a4.479,4.479,0,0,0-.011.613c.022.6.163,1.292.165,1.884a.558.558,0,0,1-.7.586l-2.393-.938L16.378,8.8a.577.577,0,0,1-.8-.4l.16-2.612-1.6-1.915a.556.556,0,0,1,.277-.908c.734-.261,1.665-.333,2.416-.6L18.251.151A.589.589,0,0,1,19.03.145" transform="translate(824.637 783.029)" fill="#fff"/>
    </g>
  </g>
</svg>
