<svg xmlns="http://www.w3.org/2000/svg" width="40" height="40" viewBox="0 0 40 40">
    <g data-name="TripAdvisor Restaurants Search" transform="translate(-427.5 -2104)">
        <rect data-name="Прямоугольник 14323" width="40" height="40" rx="9" transform="translate(427.5 2104)" style="fill:#72dba1"/>
        <g data-name="Сгруппировать 17949">
            <path data-name="Контур 67878" d="m0 144.468 5.012.024a2.781 2.781 0 0 1-.569 1.606 2.5 2.5 0 0 1-4.322-.781L0 144.893z" transform="translate(435.398 1977.972)" style="fill:#fff"/>
            <path data-name="Контур 67879" d="M43.823 182.672v6.119a2.3 2.3 0 0 1-2.3 2.3H24.752a2.3 2.3 0 0 1-2.3-2.3v-6.119a3.893 3.893 0 0 0 4.278-1.512 3.936 3.936 0 0 0 6.386.048c.051-.011.605.63.728.731a3.928 3.928 0 0 0 5.7-.78 3.9 3.9 0 0 0 4.278 1.512" transform="translate(414.361 1943.597)" style="fill:#fff"/>
            <path data-name="Контур 67880" d="M108.869 0v7.705h-4.822L105.37 0z" transform="translate(337.922 2113.317)" style="fill:#fff"/>
            <path data-name="Контур 67881" d="m206.352 0 1.324 7.705h-4.822V0z" transform="translate(245.356 2113.317)" style="fill:#fff"/>
            <path data-name="Контур 67882" d="M10.637 0 9.313 7.705H4.491L7.209 0z" transform="translate(431.191 2113.317)" style="fill:#fff"/>
            <path data-name="Контур 67883" d="M287.6 7.7h-4.822L281.45 0h3.427z" transform="translate(171.723 2113.317)" style="fill:#fff"/>
            <path data-name="Контур 67884" d="M207.851 144.468a2.747 2.747 0 0 1-.59 1.655 2.5 2.5 0 0 1-4.421-1.655z" transform="translate(245.369 1977.972)" style="fill:#fff"/>
            <path data-name="Контур 67885" d="M106.064 144.468a2.5 2.5 0 0 1-4.463 1.6 2.782 2.782 0 0 1-.548-1.6z" transform="translate(340.726 1977.972)" style="fill:#fff"/>
            <path data-name="Контур 67886" d="M308.917 144.468a2.5 2.5 0 0 1-4.463 1.6 2.782 2.782 0 0 1-.548-1.6z" transform="translate(150.684 1977.972)" style="fill:#fff"/>
        </g>
    </g>
</svg>
