<svg xmlns="http://www.w3.org/2000/svg" width="40" height="40" viewBox="0 0 40 40">
  <g id="icon_trustpilot_reviews_scraper" transform="translate(-728 -3731)">
    <rect id="Прямоугольник_9302" data-name="Прямоугольник 9302" width="40" height="40" rx="9" transform="translate(728 3731)" fill="#0bdb90"/>
    <g id="pointed-star" transform="translate(736 3729.711)">
      <path id="Контур_71638" data-name="Контур 71638" d="M15.372,18.507a.7.7,0,0,1-.629-.457l-2.6-7.987c-.082-.252-.215-.252-.3,0L9.257,18.05a.7.7,0,0,1-.629.457H.229c-.265,0-.306.126-.092.282l6.794,4.936a.7.7,0,0,1,.24.739L4.577,32.451c-.082.252.025.33.24.174l6.794-4.936a.7.7,0,0,1,.777,0l6.794,4.936c.215.156.322.078.24-.174l-2.595-7.987a.7.7,0,0,1,.24-.739l6.794-4.936c.215-.156.173-.282-.092-.282h-8.4Z" transform="translate(0 0)" fill="#093023"/>
    </g>
  </g>
</svg>
