<svg xmlns="http://www.w3.org/2000/svg" width="40" height="40" viewBox="0 0 40 40">
    <g data-name="Vinted Products Scraper" transform="translate(-727.5 -1715)">
        <rect data-name="Прямоугольник 14314" width="40" height="40" rx="9" transform="translate(727.5 1715)" style="fill:#43929e"/>
        <path data-name="Контур 67916" d="M0 6.881v10.225a1.769 1.769 0 0 0 .884 1.532l8.856 5.113a1.769 1.769 0 0 0 1.769 0l8.855-5.113a1.769 1.769 0 0 0 .884-1.532V6.881a1.769 1.769 0 0 0-.884-1.532L11.508.237a1.769 1.769 0 0 0-1.769 0L.884 5.349A1.769 1.769 0 0 0 0 6.881" transform="translate(736.877 1723.006)" style="fill:#fff"/>
        <path data-name="Контур 67917" d="m71.666 28.306-11.31 6.525a1.093 1.093 0 0 0-.547.947v4.934a.836.836 0 0 0 .438.735l1 .544a.836.836 0 0 0 1.235-.735V37.73a1.061 1.061 0 0 1 .53-.919l11.691-6.75z" transform="translate(681.736 1695.359)" style="fill:#43929e"/>
    </g>
</svg>
