<svg xmlns="http://www.w3.org/2000/svg" width="40" height="40" viewBox="0 0 40 40">
    <defs>
        <clipPath id="10oh87f4pa">
            <path data-name="Прямоугольник 14299" style="fill:#fff" d="M0 0h19.608v19.539H0z"/>
        </clipPath>
    </defs>
    <g data-name="YouTube Channel Scraper" transform="translate(-724 -1314)">
        <rect data-name="Прямоугольник 14298" width="40" height="40" rx="9" transform="translate(724 1314)" style="fill:#e83820"/>
        <g data-name="Сгруппировать 17948">
            <g data-name="Сгруппировать 17947" style="clip-path:url(#10oh87f4pa)" transform="translate(734 1324)">
                <path data-name="Контур 67915" d="M11.434 3.622h5.056a3.5 3.5 0 0 1 3.053 3.134c-.16 3.157.205 6.513 0 9.647a3.413 3.413 0 0 1-3.136 3.136H3.051A3.45 3.45 0 0 1 0 16.528V6.635a3.508 3.508 0 0 1 3.05-3.013h5.056L5.544 1A.681.681 0 0 1 6.613.187L9.755 3.32c1.105-1.008 2.133-2.13 3.219-3.172a.678.678 0 0 1 .988.9zM8.7 8.284a1.664 1.664 0 0 0-1.53 1.5 27.156 27.156 0 0 0 0 3.587 1.638 1.638 0 0 0 2.42 1.308c1.046-.532 2.1-1.521 3.149-2.1a1.651 1.651 0 0 0-.177-2.594c-1.032-.425-2.157-1.239-3.189-1.592a1.908 1.908 0 0 0-.673-.109" style="fill:#fff"/>
            </g>
        </g>
    </g>
</svg>
