<svg width="20" height="25" viewBox="0 0 20 25" fill="none" xmlns="http://www.w3.org/2000/svg">
    <path d="M10.22.103c1.756.002 3.44.632 4.685 1.755 1.244 1.123 1.947 2.647 1.95 4.24v2.79a3.18 3.18 0 0 1 2.03.794c.569.513.89 1.21.89 1.94v8.167c-.003 1.358-.602 2.657-1.662 3.613s-2.494 1.493-3.989 1.495h-8.37c-1.495-.002-2.93-.539-3.99-1.495-1.06-.956-1.658-2.255-1.66-3.613v-8.168c0-.729.32-1.426.888-1.939a3.18 3.18 0 0 1 2.03-.793V6.097c.003-1.592.707-3.116 1.95-4.24C6.218.736 7.903.106 9.658.104h.564zM3.126 10.846a.928.928 0 0 0-.62.231.734.734 0 0 0-.25.544v8.168c0 .831.365 1.63 1.02 2.221.655.592 1.547.926 2.478.926h8.371c.931 0 1.823-.334 2.478-.925.655-.592 1.021-1.391 1.021-2.222v-8.168a.735.735 0 0 0-.251-.544.928.928 0 0 0-.62-.231H3.126zm6.532-8.782c-1.192 0-2.333.427-3.173 1.185-.84.757-1.31 1.782-1.31 2.848v2.788h9.53V6.097c0-1.066-.47-2.09-1.31-2.848-.84-.758-1.981-1.185-3.173-1.185h-.564z" fill="red" stroke="red" stroke-width=".2"/>
    <path d="M13.995 5.533h3.244V8.81h-3.245V5.533z" fill="#F8FAFC"/>
</svg>
