<svg width="25" height="20" viewBox="0 0 25 20" fill="none" xmlns="http://www.w3.org/2000/svg">
    <path fill-rule="evenodd" clip-rule="evenodd" d="M25 2.679c0-.711-.282-1.392-.785-1.894A2.675 2.675 0 0 0 22.321 0H2.68C1.968 0 1.287.282.785.785A2.675 2.675 0 0 0 0 2.679v14.285c0 .711.282 1.392.785 1.894a2.675 2.675 0 0 0 1.894.785H22.32c.711 0 1.392-.282 1.894-.785A2.675 2.675 0 0 0 25 16.964V2.68zm-1.786 0v14.285a.89.89 0 0 1-.893.893H2.68a.89.89 0 0 1-.893-.893V2.68a.89.89 0 0 1 .893-.893H22.32a.89.89 0 0 1 .893.893zm-8.928 12.5h5.357a.893.893 0 0 0 0-1.786h-5.357a.893.893 0 0 0 0 1.786zM4.773 6.335l3.738 3.227a.448.448 0 0 1 0 .676l-3.738 3.227a.894.894 0 0 0 1.168 1.352l3.737-3.228a2.233 2.233 0 0 0 0-3.378L5.94 4.983a.894.894 0 0 0-1.168 1.352z" fill="red"/>
</svg>
