<svg width="24" height="24" viewBox="0 0 24 24" fill="none" xmlns="http://www.w3.org/2000/svg">
    <path d="M3.515 20.485a12 12 0 1 0 16.97-16.97 12 12 0 0 0-16.97 16.97zM12 1.567c.782 0 1.646 1.044 2.313 2.793.337.91.595 1.848.77 2.803H8.917c.174-.955.432-1.893.77-2.803.666-1.75 1.53-2.793 2.312-2.793zm3.314 7.096a28.335 28.335 0 0 1 0 6.674H8.686A27.664 27.664 0 0 1 8.489 12c-.002-1.115.064-2.23.197-3.337h6.628zM22.5 12c0 1.134-.183 2.261-.544 3.337h-5.132a29.8 29.8 0 0 0 0-6.674h5.132c.361 1.075.545 2.203.544 3.337zM12 22.433c-.782 0-1.646-1.044-2.312-2.793a16.65 16.65 0 0 1-.77-2.803h6.164a16.65 16.65 0 0 1-.77 2.803c-.666 1.749-1.53 2.793-2.312 2.793zm-4.824-7.096H2.044a10.51 10.51 0 0 1 0-6.674h5.132A29.227 29.227 0 0 0 6.988 12c0 1.115.062 2.23.188 3.337zm-4.493 1.5h4.711c.217 1.223.516 2.352.892 3.337.292.768.624 1.425.988 1.966a10.546 10.546 0 0 1-6.591-5.303zm12.043 5.303c.364-.54.696-1.198.988-1.966.376-.985.676-2.114.892-3.337h4.711a10.545 10.545 0 0 1-6.591 5.303zm6.591-14.977h-4.711c-.216-1.223-.516-2.352-.892-3.337-.292-.768-.624-1.425-.988-1.966a10.545 10.545 0 0 1 6.591 5.303zM9.274 1.86c-.364.54-.696 1.198-.988 1.966-.376.985-.675 2.114-.892 3.337H2.683A10.546 10.546 0 0 1 9.274 1.86z" fill="red"/>
</svg>
