<svg width="25" height="25" viewBox="0 0 25 25" fill="none" xmlns="http://www.w3.org/2000/svg">
    <path d="M11.043 4.728a.971.971 0 1 0 0-1.943.971.971 0 0 0 0 1.943z" fill="red"/>
    <path d="M22.215 7.157h-2.914V2.785c0-1.34-1.09-2.429-2.43-2.429h-6.8a2.432 2.432 0 0 0-2.429 2.429v3.4H2.785A2.432 2.432 0 0 0 .356 8.614v6.8c0 1.34 1.09 2.43 2.429 2.43h2.914v4.371c0 1.34 1.09 2.429 2.43 2.429h6.8c1.339 0 2.429-1.09 2.429-2.429v-3.4h4.857c1.34 0 2.429-1.09 2.429-2.43v-6.8c0-1.339-1.09-2.428-2.429-2.428zM1.328 15.414v-6.8c0-.804.653-1.457 1.457-1.457h10.687c.642 0 .643-.972 0-.972H8.614v-3.4c0-.804.654-1.457 1.457-1.457h6.8c.804 0 1.458.653 1.458 1.457v7.772c0 .803-.654 1.457-1.457 1.457H8.128A2.432 2.432 0 0 0 5.7 14.443v2.429H2.785a1.46 1.46 0 0 1-1.457-1.458zm22.344.972a1.46 1.46 0 0 1-1.457 1.457H11.528c-.642 0-.643.972 0 .972h4.858v3.4c0 .803-.654 1.457-1.457 1.457h-6.8a1.459 1.459 0 0 1-1.458-1.457v-7.772a1.46 1.46 0 0 1 1.457-1.457h8.744c1.339 0 2.429-1.09 2.429-2.43V8.129h2.914c.803 0 1.457.654 1.457 1.457v6.8z" fill="red" stroke="red" stroke-width=".7"/>
    <path d="M13.957 22.215a.971.971 0 1 0 0-1.943.971.971 0 0 0 0 1.943z" fill="red"/>
</svg>
