<svg width="21" height="24" viewBox="0 0 21 24" fill="none" xmlns="http://www.w3.org/2000/svg">
    <path d="M8.688.87c.954-.914 2.478-.956 3.487-.13l.136.13L19.5 7.762a1.11 1.11 0 0 1 0 1.62 1.244 1.244 0 0 1-1.708 0l-5.828-5.589-.254-.243v14.147c0 .628-.539 1.153-1.209 1.153s-1.209-.525-1.209-1.153V3.55l-.254.243L3.21 9.382a1.244 1.244 0 0 1-1.708 0 1.11 1.11 0 0 1 0-1.62L8.688.87z" fill="red" stroke="#F8FAFC" stroke-width=".3"/>
    <path d="M19.688 17.15c.63 0 1.162.554 1.162 1.25v1.4c0 2.236-1.714 4.05-3.788 4.05H3.938C1.865 23.85.15 22.036.15 19.8v-1.4c0-.696.532-1.25 1.163-1.25.63 0 1.162.554 1.162 1.25v1.4c0 .843.649 1.55 1.462 1.55h13.126c.813 0 1.462-.707 1.462-1.55v-1.4c0-.696.532-1.25 1.163-1.25z" fill="red" stroke="#F8FAFC" stroke-width=".3"/>
</svg>
