<svg width="26" height="24" viewBox="0 0 26 24" fill="none" xmlns="http://www.w3.org/2000/svg">
    <path d="M24.449 8.48a3.45 3.45 0 0 1-1.412-.533 3.348 3.348 0 0 1-1.035-1.077A3.236 3.236 0 0 1 21.771 4c.117-.303.135-.635.05-.949a1.551 1.551 0 0 0-.527-.8A12.867 12.867 0 0 0 17.481.098a1.643 1.643 0 0 0-.987-.041 1.607 1.607 0 0 0-.825.53 3.373 3.373 0 0 1-1.184.935 3.461 3.461 0 0 1-2.97 0 3.373 3.373 0 0 1-1.184-.934c-.21-.257-.5-.443-.825-.531a1.642 1.642 0 0 0-.987.04 12.939 12.939 0 0 0-3.553 1.944 1.57 1.57 0 0 0-.555.82c-.09.323-.072.667.052.98a3.22 3.22 0 0 1-.238 2.956c-.274.44-.65.812-1.097 1.085-.448.273-.955.44-1.481.487a1.623 1.623 0 0 0-.915.404 1.553 1.553 0 0 0-.49.855 11.802 11.802 0 0 0-.078 4.351c.056.34.224.652.48.889.255.236.583.384.933.421.538.05 1.055.223 1.51.508.454.284.832.67 1.102 1.126a3.224 3.224 0 0 1 .144 3.022 1.502 1.502 0 0 0-.104.994c.08.334.273.632.546.847a12.965 12.965 0 0 0 3.779 2.121 1.628 1.628 0 0 0 1.278-.082c.226-.115.421-.28.568-.484a3.327 3.327 0 0 1 1.206-1.045 3.468 3.468 0 0 1 3.09-.021c.473.232.883.568 1.199.981.21.276.507.476.846.569.338.093.699.074 1.026-.053a13.075 13.075 0 0 0 3.466-2.02 1.56 1.56 0 0 0 .532-.816c.084-.32.062-.659-.064-.966a3.222 3.222 0 0 1 .191-2.937 3.331 3.331 0 0 1 1.066-1.098c.437-.281.936-.459 1.456-.52a1.62 1.62 0 0 0 .896-.424c.244-.231.407-.532.465-.86.139-.704.214-1.42.225-2.137 0-.757-.072-1.512-.217-2.256a1.534 1.534 0 0 0-.458-.84 1.602 1.602 0 0 0-.876-.419zm-.364 5.271a5.2 5.2 0 0 0-2.13.805 5.049 5.049 0 0 0-1.558 1.627 4.879 4.879 0 0 0-.342 4.328 11.057 11.057 0 0 1-2.86 1.69 5.063 5.063 0 0 0-1.792-1.429 5.194 5.194 0 0 0-2.256-.506 5.255 5.255 0 0 0-2.313.548 5.114 5.114 0 0 0-1.812 1.505 11.404 11.404 0 0 1-3.103-1.74 4.85 4.85 0 0 0-.251-4.445 5.065 5.065 0 0 0-1.622-1.687 5.222 5.222 0 0 0-2.226-.797c-.07-.55-.099-1.103-.087-1.656 0-.655.064-1.309.191-1.952a5.198 5.198 0 0 0 2.178-.762 5.045 5.045 0 0 0 1.61-1.62 4.837 4.837 0 0 0 .399-4.343 11.165 11.165 0 0 1 2.92-1.605 5.115 5.115 0 0 0 1.773 1.35 5.242 5.242 0 0 0 4.392 0 5.114 5.114 0 0 0 1.773-1.35 11.128 11.128 0 0 1 3.146 1.782 4.887 4.887 0 0 0 .392 4.23c.38.634.898 1.178 1.518 1.595.62.417 1.326.695 2.068.816.113.614.171 1.236.174 1.859a11.095 11.095 0 0 1-.148 1.757h-.034z" fill="red"/>
    <path d="M13 6.925a5.296 5.296 0 0 0-2.89.854 5.1 5.1 0 0 0-1.914 2.275 4.951 4.951 0 0 0-.296 2.929c.2.983.696 1.887 1.423 2.596a5.242 5.242 0 0 0 2.662 1.387 5.325 5.325 0 0 0 3.005-.289 5.173 5.173 0 0 0 2.333-1.867 4.98 4.98 0 0 0 .877-2.816 5.006 5.006 0 0 0-1.523-3.585A5.269 5.269 0 0 0 13 6.925zm0 8.449a3.53 3.53 0 0 1-1.926-.57 3.399 3.399 0 0 1-1.277-1.517 3.3 3.3 0 0 1-.197-1.952 3.354 3.354 0 0 1 .949-1.73 3.495 3.495 0 0 1 1.774-.926 3.55 3.55 0 0 1 2.003.193 3.449 3.449 0 0 1 1.556 1.244 3.32 3.32 0 0 1 .585 1.878c0 .896-.366 1.756-1.016 2.39-.65.633-1.532.99-2.451.99z" fill="red"/>
</svg>
